<?xml version="1.0" encoding="UTF-8"?>
<svg id="Layer_2" data-name="Layer 2" xmlns="http://www.w3.org/2000/svg" xmlns:xlink="http://www.w3.org/1999/xlink" viewBox="0 0 193.91 193.91">
  <defs>
    <style>
      .cls-1 {
        fill: url(#linear-gradient-2);
      }

      .cls-2 {
        fill: #fff;
      }

      .cls-3 {
        fill: url(#linear-gradient-3);
      }

      .cls-4 {
        fill: #ff7a2f;
      }

      .cls-5 {
        fill: url(#linear-gradient);
      }

      .cls-6 {
        fill: url(#linear-gradient-4);
      }
    </style>
    <linearGradient id="linear-gradient" x1="77.99" y1="86.07" x2="36.83" y2="43.24" gradientUnits="userSpaceOnUse">
      <stop offset=".12" stop-color="#a15221"/>
      <stop offset=".45" stop-color="#ff7a2f"/>
    </linearGradient>
    <linearGradient id="linear-gradient-2" x1="93.17" y1="71.49" x2="52" y2="28.66" xlink:href="#linear-gradient"/>
    <linearGradient id="linear-gradient-3" x1="62.78" y1="100.7" x2="21.62" y2="57.87" xlink:href="#linear-gradient"/>
    <linearGradient id="linear-gradient-4" x1="77.77" y1="86.29" x2="36.61" y2="43.46" xlink:href="#linear-gradient"/>
  </defs>
  <g id="Layer_1-2" data-name="Layer 1">
    <g>
      <rect class="cls-2" width="193.91" height="193.91" rx="45.65" ry="45.65"/>
      <g>
        <g>
          <path class="cls-4" d="M130.06,79.02c.75-.76,1.14-1.81,1.09-2.87-.05-1.06-.56-2.06-1.38-2.75-.66-.54-1.5-.84-2.37-.84-1.06,0-2.11,.44-2.86,1.2l-53.19,54.02c-1.46,1.49-1.45,3.89,.02,5.37,.72,.72,1.68,1.12,2.69,1.12s1.99-.4,2.71-1.14l53.29-54.11Z"/>
          <path class="cls-4" d="M130.63,104.88c-.72-.72-1.68-1.12-2.7-1.12s-1.97,.4-2.69,1.12l-38.78,38.78c-1.49,1.49-1.49,3.9,0,5.39,.72,.72,1.68,1.12,2.69,1.12s1.98-.4,2.69-1.12l38.78-38.78c1.48-1.48,1.49-3.9,0-5.39Z"/>
          <path class="cls-4" d="M126.04,45.56c.9-.08,1.82-.12,2.72-.12,4.28,0,8.41,.87,12.28,2.58,.49,.22,1.01,.33,1.54,.33,1.02,0,1.97-.4,2.69-1.11,.89-.89,1.28-2.17,1.05-3.41-.23-1.22-1.04-2.25-2.17-2.75-4.88-2.16-10.06-3.25-15.4-3.25-10.18,0-19.74,3.96-26.94,11.16l-55.02,55.03c-.72,.72-1.12,1.68-1.12,2.7s.4,1.98,1.12,2.69c.72,.72,1.68,1.12,2.69,1.12s1.97-.4,2.69-1.12l54.72-54.72c5.26-5.26,12.06-8.5,19.13-9.11Z"/>
          <path class="cls-4" d="M161.72,56.82c-.68-1.17-1.9-1.87-3.27-1.87-1.02,0-1.98,.4-2.7,1.12-1.21,1.21-1.46,3.11-.59,4.61,6.87,11.92,4.88,27.04-4.85,36.77l-55.03,55.03c-1.49,1.49-1.49,3.9,0,5.39,.72,.72,1.68,1.12,2.69,1.12s1.98-.4,2.69-1.12l55.03-55.03c12.19-12.19,14.67-31.12,6.03-46.03Z"/>
          <path class="cls-4" d="M104.91,114c-.72-.72-1.68-1.12-2.7-1.12s-1.97,.4-2.69,1.12l-20.96,20.96c-.72,.72-1.12,1.68-1.12,2.7s.4,1.98,1.12,2.69c.72,.72,1.68,1.12,2.69,1.12s1.97-.4,2.69-1.12l20.96-20.96c1.48-1.48,1.49-3.9,0-5.39Z"/>
          <path class="cls-4" d="M127.33,69.52c.36-.06,.73-.09,1.1-.09,1.85,0,3.53,.79,4.73,2.21,1.96,2.33,1.72,6.19-.52,8.43l-13.12,13.12c-1.49,1.49-1.49,3.9,0,5.39,.72,.72,1.68,1.12,2.7,1.12,1.02,0,1.98-.4,2.69-1.12l13.26-13.26c5.37-5.37,5.37-14.11,0-19.48-2.6-2.6-6.06-4.03-9.74-4.03s-7.14,1.43-9.74,4.03l-55.02,55.03c-1.49,1.49-1.49,3.9,0,5.39,.72,.72,1.68,1.12,2.69,1.12s1.98-.4,2.69-1.12l54.91-54.91c.98-.98,2.15-1.61,3.37-1.82Z"/>
          <path class="cls-4" d="M100.46,72.53c-.72-.72-1.68-1.12-2.7-1.12s-1.98,.4-2.69,1.12l-39.87,39.87c-1.49,1.49-1.49,3.9,0,5.39,.72,.72,1.68,1.12,2.69,1.12s1.98-.4,2.69-1.12l39.87-39.87c1.48-1.48,1.49-3.9,0-5.39Z"/>
          <path class="cls-4" d="M113.95,54.33c-.95,.64-1.56,1.66-1.67,2.8-.11,1.13,.29,2.25,1.09,3.06,.72,.72,1.67,1.11,2.69,1.11,.77,0,1.52-.23,2.16-.66,3.01-2.03,6.53-3.1,10.19-3.1,.66,0,1.32,.04,1.98,.1,3.62,.38,7.01,1.83,9.8,4.19,4.2,3.56,6.51,8.53,6.51,14,0,2.96-.72,5.89-2.08,8.48-.77,1.47-.5,3.25,.69,4.44,.72,.72,1.68,1.12,2.69,1.12,1.43,0,2.72-.78,3.38-2.05,5.27-10.08,3.4-22.27-4.65-30.32-4.89-4.89-11.4-7.59-18.32-7.59-5.18,0-10.19,1.53-14.47,4.42Z"/>
        </g>
        <g>
          <path class="cls-5" d="M75.25,63.38c-2.6-2.6-6.06-4.03-9.74-4.03s-7.14,1.43-9.74,4.03c-5.37,5.37-5.37,14.11,0,19.48l2.26,2.26c.72,.72,1.68,1.12,2.69,1.12s1.98-.4,2.69-1.12c1.49-1.49,1.49-3.9,0-5.39l-2.1-2.1c-2.38-2.38-2.54-6.25-.38-8.64,1.19-1.31,2.81-2.03,4.56-2.03,.11,0,.23,0,.34,0,1.51,.08,2.99,.78,4.17,1.96l2.1,2.1c.72,.72,1.68,1.12,2.69,1.12s1.98-.4,2.69-1.12c1.49-1.49,1.49-3.9,0-5.39l-2.26-2.26Z"/>
          <path class="cls-1" d="M94.37,48.78l-2.26-2.26c-7.2-7.2-16.76-11.16-26.94-11.16-6.48,0-12.89,1.67-18.54,4.82-1.05,.58-1.74,1.6-1.9,2.79-.17,1.2,.23,2.37,1.08,3.22,.72,.72,1.67,1.11,2.69,1.11,.65,0,1.3-.17,1.88-.49,4.47-2.5,9.58-3.82,14.79-3.83,8.02,0,16.02,3.39,21.93,9.31l1.88,1.88c.72,.72,1.68,1.12,2.7,1.12s1.97-.4,2.69-1.12c1.49-1.49,1.49-3.9,0-5.39Z"/>
          <path class="cls-3" d="M43.62,95c-10.37-10.37-11.88-26.68-3.59-38.77,1.05-1.53,.87-3.58-.43-4.88-.72-.72-1.68-1.12-2.7-1.12-1.26,0-2.43,.61-3.14,1.64-10.41,15.11-8.53,35.52,4.47,48.51l2.26,2.26c.72,.72,1.68,1.12,2.69,1.12s1.98-.4,2.69-1.12c.72-.72,1.12-1.68,1.12-2.7s-.4-1.98-1.12-2.69l-2.26-2.26Z"/>
          <path class="cls-6" d="M78.65,51.03c-3.97-2.34-8.51-3.58-13.14-3.58-6.92,0-13.43,2.7-18.32,7.59-8.36,8.36-10.01,21.31-4,31.48,.69,1.17,1.92,1.87,3.28,1.87,1.02,0,1.97-.4,2.69-1.12,1.23-1.23,1.47-3.13,.59-4.62-2.06-3.48-2.89-7.5-2.39-11.6,.4-3.25,1.67-6.33,3.69-8.9,3.53-4.5,8.8-7.08,14.46-7.08,3.28,0,6.48,.87,9.27,2.52,.59,.35,1.26,.53,1.94,.53,1.02,0,1.97-.4,2.69-1.11,.84-.84,1.23-2,1.09-3.17-.15-1.18-.82-2.2-1.84-2.8Z"/>
        </g>
      </g>
    </g>
  </g>
</svg>