<?xml version="1.0" encoding="UTF-8"?>
<svg id="Layer_2" data-name="Layer 2" xmlns="http://www.w3.org/2000/svg" viewBox="0 0 447.87 106.46">
  <defs>
    <style>
      .cls-1 {
        fill: #fff;
      }
    </style>
  </defs>
  <g id="Layer_1-2" data-name="Layer 1">
    <g>
      <path class="cls-1" d="M34.15,50.26c-.42,3.76,3.03,11.28,7.52,11.28,8.88,0,15.46-7.42,15.46-18.07,0-10.03-6.48-20.78-21.1-20.78C12.53,22.69,0,50.58,0,73.87c0,18.7,9.19,32.59,26.53,32.59,11.18,0,21.93-8.04,25.48-16.92,.52-1.25,1.15-3.66,1.15-5.43,0-6.06-4.8-9.71-12.12-9.61-.94,4.91-5.74,16.08-13.79,16.08-5.85,0-8.36-7-8.36-17.02,0-19.32,8.36-36.87,18.8-36.87,3.13,0,4.7,1.98,4.7,4.28,0,3.24-2.82,7.42-8.25,9.3Z"/>
      <path class="cls-1" d="M87.95,43.58c-17.44,0-29.98,15.77-29.98,37.18,0,17.02,8.04,25.59,21.41,25.59,20.26,0,29.56-19.64,29.56-37.18,0-16.61-7.94-25.59-20.99-25.59Zm-7.31,47.21c-3.76,0-5.33-4.39-5.33-10.13,0-9.61,4.49-22.04,11.07-22.04,3.86,0,5.43,4.6,5.43,10.34,0,9.82-4.18,21.83-11.18,21.83Z"/>
      <path class="cls-1" d="M447.87,11.79c-3.89-4.01-4.86-11.79-11.42-11.79s-21.75,24.17-33.65,41.3c-5.66-10.58-9.36-22.68-15.32-22.68-4.5,0-8.63,6.32-12.76,7.66,4.98,7.05,13.25,19.91,17.2,30.52-7.83,18.26-20.87,33.91-31.3,33.91,.04,.04,.06,.1,.09,.14-.98-.07-1.89-.14-2.7-.14-4.49,0-6.2-1.6-6.2-7.03,0-6.68,2.4-15.98,4.6-25.28,8.56,0,11.91-.42,11.91-7.62,0-1.67-.1-4.7-.31-5.54h-8.67c.73-3.66,1.15-7.1,1.15-10.03,0-5.74-2.4-8.77-6.68-8.77-2.4,0-6.89,1.15-9.5,1.15,0,5.54-.73,11.59-1.78,17.65h-6.16c-1.36,1.67-3.03,5.01-3.03,8.36,0,4.6,3.76,4.8,5.54,4.8h1.04c-1.56,7.12-3.11,14.05-4.01,20.21-.02,.06-.05,.1-.07,.15-3.55,10.24-10.24,14.31-19.43,14.31s-15.67-5.43-15.67-16.5c0-8.98,4.07-19.11,9.92-19.11,2.61,0,3.76,1.98,3.76,4.6,0,1.67-.52,3.86-1.46,5.74,1.88,.94,3.76,1.46,5.54,1.46,5.54,0,8.88-4.91,8.88-11.59,0-10.76-8.56-14.1-16.19-14.1-16.82,0-27.89,16.29-27.89,34.26,0,.29,.03,.57,.03,.85-.01,.03-.03,.05-.04,.09-3.34,10.24-9.82,14.31-20.47,14.31-6.58,0-12.22-3.34-13.89-7.73,17.02-1.46,27.89-11.8,27.89-25.59,0-11.91-8.88-16.19-17.13-16.19-16.2,0-28.24,14.6-28.68,35.09-.01,.04-.03,.07-.05,.11-2.61,8.15-6.37,14.31-11.28,14.31-2.51,0-3.55-2.3-3.55-5.54,0-7.1,4.6-21.1,4.6-29.66,0-10.34-6.48-14.31-12.85-14.31-7.31,0-13.58,5.22-15.35,6.68-.73-3.45-2.61-5.01-5.95-5.01-2.82,0-6.48,1.15-10.13,1.15,.45,11.33-2.5,23.02-4.82,33.31-2.6,7.67-6.24,13.38-10.96,13.38-2.51,0-3.55-2.3-3.55-5.54,0-7.1,4.6-21.1,4.6-29.66,0-10.34-6.48-14.31-12.85-14.31-7.31,0-13.58,5.22-15.35,6.68-.73-3.45-2.61-5.01-5.95-5.01-2.82,0-6.48,1.15-10.13,1.15,.73,18.28-7.42,37.5-7.42,50.24,0,6.27,1.98,9.3,6.58,9.3,2.61,0,6.48-.94,10.03-1.15-.1-7.1,1.36-22.77,5.33-40.42,.94-1.15,4.18-5.22,8.15-5.22,2.19,0,4.28,1.04,4.28,5.01,0,4.8-4.18,15.98-4.18,25.28,0,11.18,6.16,16.92,16.5,16.92,5.22,0,9.57-1.52,13.21-4,.99,2.4,2.84,3.58,5.7,3.58,2.61,0,6.48-.94,10.03-1.15-.1-7.1,1.36-22.77,5.33-40.42,.94-1.15,4.18-5.22,8.15-5.22,2.19,0,4.28,1.04,4.28,5.01,0,4.8-4.18,15.98-4.18,25.28,0,11.18,6.16,16.92,16.5,16.92,8.89,0,15.27-4.38,19.88-10.5,5.22,7.28,14.3,10.5,24.31,10.5,13.29,0,22.53-4.55,28.29-11.27,4.76,6.93,13.02,11.27,24.88,11.27,9.76,0,18.14-2.6,24.39-8.02,3.32,5.96,9.73,8.02,16.45,8.02,1.09,0,2.22,.11,3.36,.02h.76c5.22,0,26.09,0,42.36-31.4,9.24,16.53,16.53,29.41,24.79,29.41,4.5,0,7.53-5.83,11.3-9.96-9.6-9.6-17.62-22.97-24.43-36.21,11.19-19.65,27.7-39.36,35.84-46.41Zm-189.56,45.16c2.3,0,3.97,2.09,3.97,5.12,0,5.74-5.54,12.32-13.68,13.26,.84-9.19,4.39-18.38,9.71-18.38Z"/>
    </g>
  </g>
</svg>