<?xml version="1.0" encoding="UTF-8"?>
<svg id="Layer_2" data-name="Layer 2" xmlns="http://www.w3.org/2000/svg" viewBox="0 0 758.85 252.04">
  <defs>
    <style>
      .cls-1 {
        fill: #2d2d2d;
      }
    </style>
  </defs>
  <g id="Layer_1-2" data-name="Layer 1">
    <g>
      <g>
        <g>
          <path class="cls-1" d="M209.98,89.02c1.52-1.55,2.33-3.68,2.22-5.85-.11-2.17-1.14-4.21-2.82-5.6-1.34-1.11-3.06-1.72-4.83-1.72-2.17,0-4.29,.89-5.83,2.45l-108.44,110.12c-2.98,3.03-2.96,7.94,.04,10.95,1.47,1.47,3.42,2.27,5.49,2.27s4.06-.82,5.53-2.32l108.63-110.31Z"/>
          <path class="cls-1" d="M211.13,141.74c-1.47-1.47-3.42-2.28-5.5-2.28s-4.03,.81-5.49,2.28l-79.06,79.06c-3.03,3.03-3.03,7.96,0,10.99,1.47,1.47,3.42,2.28,5.49,2.28s4.03-.81,5.49-2.28l79.06-79.06c3.03-3.03,3.03-7.95,0-10.98Z"/>
          <path class="cls-1" d="M201.78,20.79c1.84-.16,3.7-.24,5.54-.24,8.72,0,17.14,1.77,25.04,5.25,1,.44,2.05,.66,3.14,.66,2.07,0,4.02-.81,5.48-2.27,1.82-1.82,2.62-4.42,2.14-6.95-.47-2.49-2.12-4.59-4.42-5.61-9.94-4.4-20.5-6.63-31.39-6.63-20.74,0-40.25,8.08-54.92,22.75L40.23,139.94c-1.47,1.47-2.28,3.42-2.28,5.49s.81,4.03,2.28,5.49c1.47,1.47,3.42,2.28,5.49,2.28s4.03-.81,5.49-2.28L162.77,39.37c10.73-10.73,24.58-17.32,39.01-18.57Z"/>
          <path class="cls-1" d="M274.52,43.76c-1.39-2.39-3.88-3.82-6.67-3.82-2.08,0-4.04,.81-5.51,2.29-2.47,2.48-2.97,6.35-1.2,9.41,14.01,24.31,9.94,55.13-9.89,74.97l-112.18,112.18c-3.03,3.03-3.03,7.96,0,10.99,1.47,1.47,3.42,2.28,5.49,2.28s4.03-.81,5.49-2.28l112.18-112.18c24.86-24.86,29.91-63.44,12.29-93.83Z"/>
          <path class="cls-1" d="M158.69,160.33c-1.47-1.47-3.42-2.28-5.5-2.28s-4.03,.81-5.49,2.28l-42.72,42.72c-1.47,1.47-2.28,3.42-2.28,5.49s.81,4.03,2.28,5.49c1.47,1.47,3.42,2.28,5.49,2.28s4.03-.81,5.49-2.28l42.72-42.72c3.03-3.03,3.03-7.95,0-10.98Z"/>
          <path class="cls-1" d="M204.4,69.65c.74-.13,1.5-.19,2.24-.19,3.77,0,7.19,1.6,9.63,4.51,3.99,4.75,3.51,12.62-1.06,17.19l-26.75,26.75c-3.03,3.03-3.03,7.95,0,10.98,1.47,1.47,3.42,2.28,5.5,2.28,2.08,0,4.03-.81,5.49-2.28l27.04-27.04c10.95-10.95,10.95-28.76,0-39.71-5.3-5.3-12.35-8.23-19.85-8.23s-14.55,2.92-19.85,8.22l-112.17,112.18c-3.03,3.03-3.03,7.96,0,10.99,1.47,1.47,3.42,2.28,5.49,2.28s4.03-.81,5.49-2.28l111.94-111.95c2.01-2.01,4.38-3.29,6.86-3.71Z"/>
          <path class="cls-1" d="M149.63,75.79c-1.47-1.47-3.42-2.28-5.5-2.28s-4.03,.81-5.49,2.28L57.35,157.06c-3.03,3.03-3.03,7.96,0,10.99,1.47,1.47,3.42,2.28,5.49,2.28s4.03-.81,5.49-2.28l81.28-81.28c3.03-3.03,3.03-7.95,0-10.98Z"/>
          <path class="cls-1" d="M177.13,38.68c-1.94,1.31-3.18,3.39-3.4,5.71-.22,2.31,.59,4.58,2.23,6.23,1.46,1.46,3.4,2.27,5.48,2.27,1.57,0,3.09-.47,4.4-1.35,6.13-4.14,13.32-6.32,20.78-6.32,1.34,0,2.7,.07,4.04,.21,7.39,.77,14.3,3.73,19.99,8.55,8.56,7.26,13.27,17.39,13.27,28.53,0,6.03-1.47,12.01-4.24,17.29-1.57,3-1.01,6.63,1.4,9.05,1.47,1.47,3.42,2.28,5.49,2.28,2.91,0,5.55-1.6,6.9-4.17,10.74-20.56,6.93-45.4-9.48-61.8-9.98-9.98-23.24-15.47-37.36-15.47-10.57,0-20.76,3.11-29.49,9Z"/>
        </g>
        <g>
          <path class="cls-1" d="M98.22,57.14c-5.3-5.3-12.35-8.22-19.85-8.22s-14.55,2.92-19.86,8.22c-10.95,10.95-10.95,28.76,0,39.71l4.61,4.61c1.47,1.47,3.42,2.28,5.49,2.28s4.03-.81,5.49-2.28c3.03-3.03,3.03-7.96,0-10.99l-4.28-4.28c-4.84-4.84-5.19-12.74-.77-17.61,2.42-2.66,5.72-4.13,9.3-4.13,.23,0,.46,0,.7,.02,3.08,.16,6.1,1.58,8.5,3.99l4.28,4.28c1.47,1.47,3.42,2.28,5.49,2.28s4.03-.81,5.49-2.28c3.03-3.03,3.03-7.96,0-10.99l-4.61-4.61Z"/>
          <path class="cls-1" d="M137.22,27.36l-4.61-4.61C117.94,8.08,98.43,0,77.69,0c-13.22,0-26.29,3.39-37.8,9.82-2.13,1.19-3.54,3.26-3.88,5.69-.34,2.44,.46,4.83,2.2,6.57,1.46,1.46,3.41,2.26,5.48,2.26,1.33,0,2.66-.35,3.83-1,9.12-5.09,19.52-7.79,30.16-7.8,16.36,0,32.66,6.92,44.72,18.98l3.83,3.84c1.47,1.47,3.42,2.28,5.49,2.28s4.03-.81,5.49-2.28c3.03-3.03,3.03-7.96,0-10.99Z"/>
          <path class="cls-1" d="M33.76,121.59c-21.14-21.14-24.22-54.38-7.31-79.04,2.14-3.12,1.77-7.3-.88-9.95-1.47-1.47-3.43-2.28-5.51-2.28-2.56,0-4.95,1.25-6.4,3.35C-7.55,64.49-3.72,106.08,22.77,132.58l4.62,4.62c1.47,1.47,3.42,2.28,5.49,2.28s4.03-.81,5.49-2.28c1.47-1.47,2.28-3.42,2.28-5.49s-.81-4.03-2.28-5.49l-4.62-4.62Z"/>
          <path class="cls-1" d="M105.17,31.96c-8.09-4.77-17.36-7.3-26.79-7.3-14.11,0-27.38,5.49-37.36,15.47-17.05,17.05-20.41,43.44-8.16,64.18,1.41,2.39,3.91,3.81,6.69,3.81,2.07,0,4.02-.81,5.49-2.28,2.51-2.5,3-6.37,1.2-9.41-4.2-7.1-5.89-15.28-4.87-23.65,.81-6.63,3.41-12.91,7.53-18.15,7.2-9.17,17.94-14.43,29.48-14.43,6.68,0,13.22,1.77,18.9,5.13,1.2,.71,2.57,1.08,3.95,1.08,2.07,0,4.02-.81,5.48-2.27,1.71-1.71,2.52-4.07,2.21-6.47-.3-2.4-1.68-4.49-3.76-5.72Z"/>
        </g>
      </g>
      <g>
        <path class="cls-1" d="M345.13,123.06c-.42,3.76,3.03,11.28,7.52,11.28,8.88,0,15.46-7.42,15.46-18.07,0-10.03-6.48-20.78-21.1-20.78-23.5,0-36.03,27.89-36.03,51.18,0,18.7,9.19,32.59,26.53,32.59,11.18,0,21.93-8.04,25.48-16.92,.52-1.25,1.15-3.66,1.15-5.43,0-6.06-4.8-9.71-12.12-9.61-.94,4.91-5.74,16.08-13.79,16.08-5.85,0-8.36-7-8.36-17.02,0-19.32,8.36-36.87,18.8-36.87,3.13,0,4.7,1.98,4.7,4.28,0,3.24-2.82,7.42-8.25,9.3Z"/>
        <path class="cls-1" d="M398.92,116.37c-17.44,0-29.98,15.77-29.98,37.18,0,17.02,8.04,25.59,21.41,25.59,20.26,0,29.56-19.64,29.56-37.18,0-16.61-7.94-25.59-20.99-25.59Zm-7.31,47.21c-3.76,0-5.33-4.39-5.33-10.13,0-9.61,4.49-22.04,11.07-22.04,3.86,0,5.43,4.6,5.43,10.34,0,9.82-4.18,21.83-11.18,21.83Z"/>
        <path class="cls-1" d="M758.85,84.58c-3.89-4.01-4.86-11.79-11.42-11.79s-21.75,24.17-33.65,41.3c-5.66-10.58-9.36-22.68-15.32-22.68-4.5,0-8.63,6.32-12.76,7.66,4.98,7.05,13.25,19.91,17.2,30.52-7.83,18.26-20.87,33.91-31.3,33.91,.04,.04,.06,.1,.09,.14-.98-.07-1.89-.14-2.7-.14-4.49,0-6.2-1.6-6.2-7.03,0-6.68,2.4-15.98,4.6-25.28,8.56,0,11.91-.42,11.91-7.62,0-1.67-.1-4.7-.31-5.54h-8.67c.73-3.66,1.15-7.1,1.15-10.03,0-5.74-2.4-8.77-6.68-8.77-2.4,0-6.89,1.15-9.5,1.15,0,5.54-.73,11.59-1.78,17.65h-6.16c-1.36,1.67-3.03,5.01-3.03,8.36,0,4.6,3.76,4.8,5.54,4.8h1.04c-1.56,7.12-3.11,14.05-4.01,20.21-.02,.06-.05,.1-.07,.15-3.55,10.24-10.24,14.31-19.43,14.31s-15.67-5.43-15.67-16.5c0-8.98,4.07-19.11,9.92-19.11,2.61,0,3.76,1.98,3.76,4.6,0,1.67-.52,3.86-1.46,5.74,1.88,.94,3.76,1.46,5.54,1.46,5.54,0,8.88-4.91,8.88-11.59,0-10.76-8.56-14.1-16.19-14.1-16.82,0-27.89,16.29-27.89,34.26,0,.29,.03,.57,.03,.85-.01,.03-.03,.05-.04,.09-3.34,10.24-9.82,14.31-20.47,14.31-6.58,0-12.22-3.34-13.89-7.73,17.02-1.46,27.89-11.8,27.89-25.59,0-11.91-8.88-16.19-17.13-16.19-16.2,0-28.24,14.6-28.68,35.09-.01,.04-.03,.07-.05,.11-2.61,8.15-6.37,14.31-11.28,14.31-2.51,0-3.55-2.3-3.55-5.54,0-7.1,4.6-21.1,4.6-29.66,0-10.34-6.48-14.31-12.85-14.31-7.31,0-13.58,5.22-15.35,6.68-.73-3.45-2.61-5.01-5.95-5.01-2.82,0-6.48,1.15-10.13,1.15,.45,11.33-2.5,23.02-4.82,33.31-2.6,7.67-6.24,13.38-10.96,13.38-2.51,0-3.55-2.3-3.55-5.54,0-7.1,4.6-21.1,4.6-29.66,0-10.34-6.48-14.31-12.85-14.31-7.31,0-13.58,5.22-15.35,6.68-.73-3.45-2.61-5.01-5.95-5.01-2.82,0-6.48,1.15-10.13,1.15,.73,18.28-7.42,37.5-7.42,50.24,0,6.27,1.98,9.3,6.58,9.3,2.61,0,6.48-.94,10.03-1.15-.1-7.1,1.36-22.77,5.33-40.42,.94-1.15,4.18-5.22,8.15-5.22,2.19,0,4.28,1.04,4.28,5.01,0,4.8-4.18,15.98-4.18,25.28,0,11.18,6.16,16.92,16.5,16.92,5.22,0,9.57-1.52,13.21-4,.99,2.4,2.84,3.58,5.7,3.58,2.61,0,6.48-.94,10.03-1.15-.1-7.1,1.36-22.77,5.33-40.42,.94-1.15,4.18-5.22,8.15-5.22,2.19,0,4.28,1.04,4.28,5.01,0,4.8-4.18,15.98-4.18,25.28,0,11.18,6.16,16.92,16.5,16.92,8.89,0,15.27-4.38,19.88-10.5,5.22,7.28,14.3,10.5,24.31,10.5,13.29,0,22.53-4.55,28.29-11.27,4.76,6.93,13.02,11.27,24.88,11.27,9.76,0,18.14-2.6,24.39-8.02,3.32,5.96,9.73,8.02,16.45,8.02,1.09,0,2.22,.11,3.36,.02h.76c5.22,0,26.09,0,42.36-31.4,9.24,16.53,16.53,29.41,24.79,29.41,4.5,0,7.53-5.83,11.3-9.96-9.6-9.6-17.62-22.97-24.43-36.21,11.19-19.65,27.7-39.36,35.84-46.41Zm-189.56,45.16c2.3,0,3.97,2.09,3.97,5.12,0,5.74-5.54,12.32-13.68,13.26,.84-9.19,4.39-18.38,9.71-18.38Z"/>
      </g>
    </g>
  </g>
</svg>