<svg width="354" height="200" viewBox="0 0 354 200" fill="none" xmlns="http://www.w3.org/2000/svg">
<g filter="url(#filter0_d_6_4015)">
<rect x="8" y="7" width="338" height="184" rx="16" fill="#FF7A2F" shape-rendering="crispEdges"/>
<rect x="8.5" y="7.5" width="337" height="183" rx="15.5" stroke="#202020" stroke-opacity="0.08" shape-rendering="crispEdges"/>
<rect x="21" y="20" width="158" height="158" rx="9" fill="white"/>
<mask id="mask0_6_4015" style="mask-type:luminance" maskUnits="userSpaceOnUse" x="33" y="32" width="134" height="134">
<path d="M166.56 32.9297H33.8315V165.661H166.56V32.9297Z" fill="white"/>
</mask>
<g mask="url(#mask0_6_4015)">
<path d="M33.8315 32.9297V64.957H65.8588V32.9297H33.8315ZM38.4182 37.5164H61.304V60.4021H38.4182V37.5164Z" fill="#202020"/>
<path d="M56.7278 42.0859H42.9995V55.8142H56.7278V42.0859Z" fill="#202020"/>
<path d="M166.574 32.9307H134.532V64.9579H166.559V32.9307H166.574ZM161.988 37.5174V60.4031H139.118V37.5174H161.988Z" fill="#202020"/>
<path d="M157.408 42.0859H143.68V55.8142H157.408V42.0859Z" fill="#202020"/>
<path d="M33.8315 165.661H65.8588V133.618H33.8315V165.661ZM38.4182 161.075V138.204H61.304V161.091H38.4182V161.075Z" fill="#202020"/>
<path d="M56.7278 142.773H42.9995V156.501H56.7278V142.773Z" fill="#202020"/>
<path d="M38.4023 78.7041H33.8315V83.2749H38.4023V78.7041Z" fill="#202020"/>
<path d="M38.4023 87.8657H33.8315V92.4365H38.4023V87.8657Z" fill="#202020"/>
<path d="M38.4023 97.0039H33.8315V101.575H38.4023V97.0039Z" fill="#202020"/>
<path d="M38.4023 101.595H33.8315V106.166H38.4023V101.595Z" fill="#202020"/>
<path d="M38.4023 106.162H33.8315V110.733H38.4023V106.162Z" fill="#202020"/>
<path d="M38.4023 110.734H33.8315V115.305H38.4023V110.734Z" fill="#202020"/>
<path d="M38.4023 115.319H33.8315V119.89H38.4023V115.319Z" fill="#202020"/>
<path d="M38.4023 119.894H33.8315V124.464H38.4023V119.894Z" fill="#202020"/>
<path d="M38.4023 124.463H33.8315V129.034H38.4023V124.463Z" fill="#202020"/>
<path d="M42.998 110.734H38.4272V115.305H42.998V110.734Z" fill="#202020"/>
<path d="M42.998 119.894H38.4272V124.464H42.998V119.894Z" fill="#202020"/>
<path d="M47.5625 69.5508H42.9917V74.1216H47.5625V69.5508Z" fill="#202020"/>
<path d="M47.5625 74.1357H42.9917V78.7065H47.5625V74.1357Z" fill="#202020"/>
<path d="M47.5625 78.7041H42.9917V83.2749H47.5625V78.7041Z" fill="#202020"/>
<path d="M47.5625 83.2778H42.9917V87.8486H47.5625V83.2778Z" fill="#202020"/>
<path d="M47.5625 87.8657H42.9917V92.4365H47.5625V87.8657Z" fill="#202020"/>
<path d="M47.5625 101.595H42.9917V106.166H47.5625V101.595Z" fill="#202020"/>
<path d="M47.5625 106.162H42.9917V110.733H47.5625V106.162Z" fill="#202020"/>
<path d="M47.5625 110.734H42.9917V115.305H47.5625V110.734Z" fill="#202020"/>
<path d="M52.1196 74.1357H47.5488V78.7065H52.1196V74.1357Z" fill="#202020"/>
<path d="M52.1196 78.7041H47.5488V83.2749H52.1196V78.7041Z" fill="#202020"/>
<path d="M52.1196 83.2778H47.5488V87.8486H52.1196V83.2778Z" fill="#202020"/>
<path d="M52.1196 92.4336H47.5488V97.0044H52.1196V92.4336Z" fill="#202020"/>
<path d="M52.1196 97.0039H47.5488V101.575H52.1196V97.0039Z" fill="#202020"/>
<path d="M52.1196 101.595H47.5488V106.166H52.1196V101.595Z" fill="#202020"/>
<path d="M52.1196 106.162H47.5488V110.733H52.1196V106.162Z" fill="#202020"/>
<path d="M52.1196 115.319H47.5488V119.89H52.1196V115.319Z" fill="#202020"/>
<path d="M52.1196 119.894H47.5488V124.464H52.1196V119.894Z" fill="#202020"/>
<path d="M56.7148 69.5508H52.144V74.1216H56.7148V69.5508Z" fill="#202020"/>
<path d="M56.7148 101.595H52.144V106.166H56.7148V101.595Z" fill="#202020"/>
<path d="M56.7148 110.734H52.144V115.305H56.7148V110.734Z" fill="#202020"/>
<path d="M56.7148 115.319H52.144V119.89H56.7148V115.319Z" fill="#202020"/>
<path d="M56.7148 124.463H52.144V129.034H56.7148V124.463Z" fill="#202020"/>
<path d="M61.2871 69.5508H56.7163V74.1216H61.2871V69.5508Z" fill="#202020"/>
<path d="M61.2871 74.1357H56.7163V78.7065H61.2871V74.1357Z" fill="#202020"/>
<path d="M61.2871 78.7041H56.7163V83.2749H61.2871V78.7041Z" fill="#202020"/>
<path d="M61.2871 92.4336H56.7163V97.0044H61.2871V92.4336Z" fill="#202020"/>
<path d="M61.2871 97.0039H56.7163V101.575H61.2871V97.0039Z" fill="#202020"/>
<path d="M61.2871 101.595H56.7163V106.166H61.2871V101.595Z" fill="#202020"/>
<path d="M61.2871 106.162H56.7163V110.733H61.2871V106.162Z" fill="#202020"/>
<path d="M61.2871 110.734H56.7163V115.305H61.2871V110.734Z" fill="#202020"/>
<path d="M61.2871 119.894H56.7163V124.464H61.2871V119.894Z" fill="#202020"/>
<path d="M61.2871 124.463H56.7163V129.034H61.2871V124.463Z" fill="#202020"/>
<path d="M65.8598 69.5508H61.2891V74.1216H65.8598V69.5508Z" fill="#202020"/>
<path d="M65.8598 78.7041H61.2891V83.2749H65.8598V78.7041Z" fill="#202020"/>
<path d="M65.8598 87.8657H61.2891V92.4365H65.8598V87.8657Z" fill="#202020"/>
<path d="M65.8598 97.0039H61.2891V101.575H65.8598V97.0039Z" fill="#202020"/>
<path d="M65.8598 106.162H61.2891V110.733H65.8598V106.162Z" fill="#202020"/>
<path d="M65.8598 115.319H61.2891V119.89H65.8598V115.319Z" fill="#202020"/>
<path d="M65.8598 124.463H61.2891V129.034H65.8598V124.463Z" fill="#202020"/>
<path d="M70.4321 78.7041H65.8613V83.2749H70.4321V78.7041Z" fill="#202020"/>
<path d="M70.4321 83.2778H65.8613V87.8486H70.4321V83.2778Z" fill="#202020"/>
<path d="M70.4321 87.8657H65.8613V92.4365H70.4321V87.8657Z" fill="#202020"/>
<path d="M70.4321 92.4336H65.8613V97.0044H70.4321V92.4336Z" fill="#202020"/>
<path d="M70.4321 97.0039H65.8613V101.575H70.4321V97.0039Z" fill="#202020"/>
<path d="M70.4321 101.595H65.8613V106.166H70.4321V101.595Z" fill="#202020"/>
<path d="M70.4321 106.162H65.8613V110.733H70.4321V106.162Z" fill="#202020"/>
<path d="M70.4321 119.894H65.8613V124.464H70.4321V119.894Z" fill="#202020"/>
<path d="M75.0122 37.519H70.4414V42.0899H75.0122V37.519Z" fill="#202020"/>
<path d="M75.0122 51.248H70.4414V55.8188H75.0122V51.248Z" fill="#202020"/>
<path d="M75.0122 60.3926H70.4414V64.9634H75.0122V60.3926Z" fill="#202020"/>
<path d="M75.0122 69.5508H70.4414V74.1216H75.0122V69.5508Z" fill="#202020"/>
<path d="M75.0122 74.1357H70.4414V78.7065H75.0122V74.1357Z" fill="#202020"/>
<path d="M75.0122 92.4336H70.4414V97.0044H75.0122V92.4336Z" fill="#202020"/>
<path d="M75.0122 97.0039H70.4414V101.575H75.0122V97.0039Z" fill="#202020"/>
<path d="M75.0122 106.162H70.4414V110.733H75.0122V106.162Z" fill="#202020"/>
<path d="M75.0122 119.894H70.4414V124.464H75.0122V119.894Z" fill="#202020"/>
<path d="M75.0122 124.463H70.4414V129.034H75.0122V124.463Z" fill="#202020"/>
<path d="M75.0122 129.048H70.4414V133.619H75.0122V129.048Z" fill="#202020"/>
<path d="M75.0122 138.206H70.4414V142.777H75.0122V138.206Z" fill="#202020"/>
<path d="M75.0122 142.78H70.4414V147.351H75.0122V142.78Z" fill="#202020"/>
<path d="M75.0122 151.936H70.4414V156.507H75.0122V151.936Z" fill="#202020"/>
<path d="M79.5923 32.9331H75.0215V37.5039H79.5923V32.9331Z" fill="#202020"/>
<path d="M79.5923 51.248H75.0215V55.8188H79.5923V51.248Z" fill="#202020"/>
<path d="M79.5923 64.9731H75.0215V69.5439H79.5923V64.9731Z" fill="#202020"/>
<path d="M79.5923 74.1357H75.0215V78.7065H79.5923V74.1357Z" fill="#202020"/>
<path d="M79.5923 87.8657H75.0215V92.4365H79.5923V87.8657Z" fill="#202020"/>
<path d="M79.5923 92.4336H75.0215V97.0044H79.5923V92.4336Z" fill="#202020"/>
<path d="M79.5923 101.595H75.0215V106.166H79.5923V101.595Z" fill="#202020"/>
<path d="M79.5923 106.162H75.0215V110.733H79.5923V106.162Z" fill="#202020"/>
<path d="M79.5923 115.319H75.0215V119.89H79.5923V115.319Z" fill="#202020"/>
<path d="M79.5923 129.048H75.0215V133.619H79.5923V129.048Z" fill="#202020"/>
<path d="M79.5923 133.624H75.0215V138.194H79.5923V133.624Z" fill="#202020"/>
<path d="M79.5923 138.206H75.0215V142.777H79.5923V138.206Z" fill="#202020"/>
<path d="M79.5923 142.78H75.0215V147.351H79.5923V142.78Z" fill="#202020"/>
<path d="M79.5923 147.346H75.0215V151.916H79.5923V147.346Z" fill="#202020"/>
<path d="M79.5923 156.508H75.0215V161.079H79.5923V156.508Z" fill="#202020"/>
<path d="M79.5923 161.076H75.0215V165.646H79.5923V161.076Z" fill="#202020"/>
<path d="M84.1723 37.519H79.6016V42.0899H84.1723V37.519Z" fill="#202020"/>
<path d="M84.1723 46.6626H79.6016V51.2334H84.1723V46.6626Z" fill="#202020"/>
<path d="M84.1723 55.8208H79.6016V60.3916H84.1723V55.8208Z" fill="#202020"/>
<path d="M84.1723 60.3931H79.6016V64.9638H84.1723V60.3931Z" fill="#202020"/>
<path d="M84.1723 69.5508H79.6016V74.1216H84.1723V69.5508Z" fill="#202020"/>
<path d="M84.1723 74.1357H79.6016V78.7065H84.1723V74.1357Z" fill="#202020"/>
<path d="M84.1723 124.463H79.6016V129.034H84.1723V124.463Z" fill="#202020"/>
<path d="M84.1723 129.048H79.6016V133.619H84.1723V129.048Z" fill="#202020"/>
<path d="M84.1723 142.78H79.6016V147.351H84.1723V142.78Z" fill="#202020"/>
<path d="M84.1723 147.346H79.6016V151.916H84.1723V147.346Z" fill="#202020"/>
<path d="M84.1723 161.076H79.6016V165.646H84.1723V161.076Z" fill="#202020"/>
<path d="M88.7295 37.519H84.1587V42.0899H88.7295V37.519Z" fill="#202020"/>
<path d="M88.7295 46.6626H84.1587V51.2334H88.7295V46.6626Z" fill="#202020"/>
<path d="M88.7295 51.248H84.1587V55.8188H88.7295V51.248Z" fill="#202020"/>
<path d="M88.7295 55.8208H84.1587V60.3916H88.7295V55.8208Z" fill="#202020"/>
<path d="M88.7295 64.9731H84.1587V69.5439H88.7295V64.9731Z" fill="#202020"/>
<path d="M88.7295 69.5508H84.1587V74.1216H88.7295V69.5508Z" fill="#202020"/>
<path d="M88.7295 119.894H84.1587V124.464H88.7295V119.894Z" fill="#202020"/>
<path d="M88.7295 124.463H84.1587V129.034H88.7295V124.463Z" fill="#202020"/>
<path d="M88.7295 129.048H84.1587V133.619H88.7295V129.048Z" fill="#202020"/>
<path d="M88.7295 142.78H84.1587V147.351H88.7295V142.78Z" fill="#202020"/>
<path d="M88.7295 156.508H84.1587V161.079H88.7295V156.508Z" fill="#202020"/>
<path d="M88.7295 161.076H84.1587V165.646H88.7295V161.076Z" fill="#202020"/>
<path d="M93.3324 32.9331H88.7617V37.5039H93.3324V32.9331Z" fill="#202020"/>
<path d="M93.3324 42.0889H88.7617V46.6596H93.3324V42.0889Z" fill="#202020"/>
<path d="M93.3324 51.248H88.7617V55.8188H93.3324V51.248Z" fill="#202020"/>
<path d="M93.3324 60.3931H88.7617V64.9638H93.3324V60.3931Z" fill="#202020"/>
<path d="M93.3324 138.206H88.7617V142.777H93.3324V138.206Z" fill="#202020"/>
<path d="M93.3324 147.346H88.7617V151.916H93.3324V147.346Z" fill="#202020"/>
<path d="M93.3324 161.076H88.7617V165.646H93.3324V161.076Z" fill="#202020"/>
<path d="M97.8895 37.519H93.3188V42.0899H97.8895V37.519Z" fill="#202020"/>
<path d="M97.8895 51.248H93.3188V55.8188H97.8895V51.248Z" fill="#202020"/>
<path d="M97.8895 55.8208H93.3188V60.3916H97.8895V55.8208Z" fill="#202020"/>
<path d="M97.8895 133.624H93.3188V138.194H97.8895V133.624Z" fill="#202020"/>
<path d="M97.8895 142.78H93.3188V147.351H97.8895V142.78Z" fill="#202020"/>
<path d="M97.8895 151.936H93.3188V156.507H97.8895V151.936Z" fill="#202020"/>
<path d="M97.8895 156.508H93.3188V161.079H97.8895V156.508Z" fill="#202020"/>
<path d="M97.8895 161.076H93.3188V165.646H97.8895V161.076Z" fill="#202020"/>
<path d="M102.477 37.519H97.9062V42.0899H102.477V37.519Z" fill="#202020"/>
<path d="M102.477 46.6626H97.9062V51.2334H102.477V46.6626Z" fill="#202020"/>
<path d="M102.477 60.3931H97.9062V64.9638H102.477V60.3931Z" fill="#202020"/>
<path d="M102.477 64.9731H97.9062V69.5439H102.477V64.9731Z" fill="#202020"/>
<path d="M102.477 74.1357H97.9062V78.7065H102.477V74.1357Z" fill="#202020"/>
<path d="M102.477 124.463H97.9062V129.034H102.477V124.463Z" fill="#202020"/>
<path d="M102.477 133.624H97.9062V138.194H102.477V133.624Z" fill="#202020"/>
<path d="M102.477 142.78H97.9062V147.351H102.477V142.78Z" fill="#202020"/>
<path d="M102.477 161.076H97.9062V165.646H102.477V161.076Z" fill="#202020"/>
<path d="M107.057 51.248H102.486V55.8188H107.057V51.248Z" fill="#202020"/>
<path d="M107.057 64.9731H102.486V69.5439H107.057V64.9731Z" fill="#202020"/>
<path d="M107.057 69.5508H102.486V74.1216H107.057V69.5508Z" fill="#202020"/>
<path d="M107.057 74.1357H102.486V78.7065H107.057V74.1357Z" fill="#202020"/>
<path d="M107.057 138.206H102.486V142.777H107.057V138.206Z" fill="#202020"/>
<path d="M107.057 147.346H102.486V151.916H107.057V147.346Z" fill="#202020"/>
<path d="M107.057 156.508H102.486V161.079H107.057V156.508Z" fill="#202020"/>
<path d="M107.057 161.076H102.486V165.646H107.057V161.076Z" fill="#202020"/>
<path d="M111.63 32.9331H107.059V37.5039H111.63V32.9331Z" fill="#202020"/>
<path d="M111.63 37.519H107.059V42.0899H111.63V37.519Z" fill="#202020"/>
<path d="M111.63 42.0889H107.059V46.6596H111.63V42.0889Z" fill="#202020"/>
<path d="M111.63 46.6626H107.059V51.2334H111.63V46.6626Z" fill="#202020"/>
<path d="M111.63 51.248H107.059V55.8188H111.63V51.248Z" fill="#202020"/>
<path d="M111.63 55.8208H107.059V60.3916H111.63V55.8208Z" fill="#202020"/>
<path d="M111.63 60.3931H107.059V64.9638H111.63V60.3931Z" fill="#202020"/>
<path d="M111.63 69.5508H107.059V74.1216H111.63V69.5508Z" fill="#202020"/>
<path d="M111.63 74.1357H107.059V78.7065H111.63V74.1357Z" fill="#202020"/>
<path d="M111.63 119.894H107.059V124.464H111.63V119.894Z" fill="#202020"/>
<path d="M111.63 124.463H107.059V129.034H111.63V124.463Z" fill="#202020"/>
<path d="M111.63 129.048H107.059V133.619H111.63V129.048Z" fill="#202020"/>
<path d="M111.63 161.076H107.059V165.646H111.63V161.076Z" fill="#202020"/>
<path d="M116.194 32.9331H111.624V37.5039H116.194V32.9331Z" fill="#202020"/>
<path d="M116.194 37.519H111.624V42.0899H116.194V37.519Z" fill="#202020"/>
<path d="M116.194 46.6626H111.624V51.2334H116.194V46.6626Z" fill="#202020"/>
<path d="M116.194 55.8208H111.624V60.3916H116.194V55.8208Z" fill="#202020"/>
<path d="M116.194 64.9731H111.624V69.5439H116.194V64.9731Z" fill="#202020"/>
<path d="M116.194 69.5508H111.624V74.1216H116.194V69.5508Z" fill="#202020"/>
<path d="M116.194 129.048H111.624V133.619H116.194V129.048Z" fill="#202020"/>
<path d="M116.194 133.624H111.624V138.194H116.194V133.624Z" fill="#202020"/>
<path d="M116.194 142.78H111.624V147.351H116.194V142.78Z" fill="#202020"/>
<path d="M116.194 161.076H111.624V165.646H116.194V161.076Z" fill="#202020"/>
<path d="M120.798 42.0889H116.227V46.6596H120.798V42.0889Z" fill="#202020"/>
<path d="M120.798 60.3931H116.227V64.9638H120.798V60.3931Z" fill="#202020"/>
<path d="M120.798 64.9731H116.227V69.5439H120.798V64.9731Z" fill="#202020"/>
<path d="M120.798 69.5508H116.227V74.1216H120.798V69.5508Z" fill="#202020"/>
<path d="M120.798 74.1357H116.227V78.7065H120.798V74.1357Z" fill="#202020"/>
<path d="M120.798 124.463H116.227V129.034H120.798V124.463Z" fill="#202020"/>
<path d="M120.798 138.206H116.227V142.777H120.798V138.206Z" fill="#202020"/>
<path d="M120.798 151.936H116.227V156.507H120.798V151.936Z" fill="#202020"/>
<path d="M120.798 161.076H116.227V165.646H120.798V161.076Z" fill="#202020"/>
<path d="M125.354 46.6626H120.784V51.2334H125.354V46.6626Z" fill="#202020"/>
<path d="M125.354 55.8208H120.784V60.3916H125.354V55.8208Z" fill="#202020"/>
<path d="M125.354 69.5508H120.784V74.1216H125.354V69.5508Z" fill="#202020"/>
<path d="M125.354 78.7041H120.784V83.2749H125.354V78.7041Z" fill="#202020"/>
<path d="M125.354 83.2778H120.784V87.8486H125.354V83.2778Z" fill="#202020"/>
<path d="M125.354 92.4336H120.784V97.0044H125.354V92.4336Z" fill="#202020"/>
<path d="M125.354 97.0039H120.784V101.575H125.354V97.0039Z" fill="#202020"/>
<path d="M125.354 110.734H120.784V115.305H125.354V110.734Z" fill="#202020"/>
<path d="M125.354 115.319H120.784V119.89H125.354V115.319Z" fill="#202020"/>
<path d="M125.354 147.346H120.784V151.916H125.354V147.346Z" fill="#202020"/>
<path d="M129.935 32.9331H125.364V37.5039H129.935V32.9331Z" fill="#202020"/>
<path d="M129.935 37.519H125.364V42.0899H129.935V37.519Z" fill="#202020"/>
<path d="M129.935 42.0889H125.364V46.6596H129.935V42.0889Z" fill="#202020"/>
<path d="M129.935 46.6626H125.364V51.2334H129.935V46.6626Z" fill="#202020"/>
<path d="M129.935 60.3931H125.364V64.9638H129.935V60.3931Z" fill="#202020"/>
<path d="M129.935 69.5508H125.364V74.1216H129.935V69.5508Z" fill="#202020"/>
<path d="M129.935 78.7041H125.364V83.2749H129.935V78.7041Z" fill="#202020"/>
<path d="M129.935 83.2778H125.364V87.8486H129.935V83.2778Z" fill="#202020"/>
<path d="M129.935 101.595H125.364V106.166H129.935V101.595Z" fill="#202020"/>
<path d="M129.935 106.162H125.364V110.733H129.935V106.162Z" fill="#202020"/>
<path d="M129.935 110.734H125.364V115.305H129.935V110.734Z" fill="#202020"/>
<path d="M129.935 119.894H125.364V124.464H129.935V119.894Z" fill="#202020"/>
<path d="M129.935 124.463H125.364V129.034H129.935V124.463Z" fill="#202020"/>
<path d="M129.935 129.048H125.364V133.619H129.935V129.048Z" fill="#202020"/>
<path d="M129.935 133.624H125.364V138.194H129.935V133.624Z" fill="#202020"/>
<path d="M129.935 138.206H125.364V142.777H129.935V138.206Z" fill="#202020"/>
<path d="M129.935 142.78H125.364V147.351H129.935V142.78Z" fill="#202020"/>
<path d="M129.935 147.346H125.364V151.916H129.935V147.346Z" fill="#202020"/>
<path d="M129.935 161.076H125.364V165.646H129.935V161.076Z" fill="#202020"/>
<path d="M134.515 69.5508H129.944V74.1216H134.515V69.5508Z" fill="#202020"/>
<path d="M134.515 78.7041H129.944V83.2749H134.515V78.7041Z" fill="#202020"/>
<path d="M134.515 83.2778H129.944V87.8486H134.515V83.2778Z" fill="#202020"/>
<path d="M134.515 92.4336H129.944V97.0044H134.515V92.4336Z" fill="#202020"/>
<path d="M134.515 97.0039H129.944V101.575H134.515V97.0039Z" fill="#202020"/>
<path d="M134.515 101.595H129.944V106.166H134.515V101.595Z" fill="#202020"/>
<path d="M134.515 106.162H129.944V110.733H134.515V106.162Z" fill="#202020"/>
<path d="M134.515 110.734H129.944V115.305H134.515V110.734Z" fill="#202020"/>
<path d="M134.515 115.319H129.944V119.89H134.515V115.319Z" fill="#202020"/>
<path d="M134.515 124.463H129.944V129.034H134.515V124.463Z" fill="#202020"/>
<path d="M134.515 142.78H129.944V147.351H134.515V142.78Z" fill="#202020"/>
<path d="M134.515 151.936H129.944V156.507H134.515V151.936Z" fill="#202020"/>
<path d="M134.515 161.076H129.944V165.646H134.515V161.076Z" fill="#202020"/>
<path d="M139.095 78.7041H134.524V83.2749H139.095V78.7041Z" fill="#202020"/>
<path d="M139.095 92.4336H134.524V97.0044H139.095V92.4336Z" fill="#202020"/>
<path d="M139.095 101.595H134.524V106.166H139.095V101.595Z" fill="#202020"/>
<path d="M139.095 115.319H134.524V119.89H139.095V115.319Z" fill="#202020"/>
<path d="M139.095 119.894H134.524V124.464H139.095V119.894Z" fill="#202020"/>
<path d="M139.095 124.463H134.524V129.034H139.095V124.463Z" fill="#202020"/>
<path d="M139.095 133.624H134.524V138.194H139.095V133.624Z" fill="#202020"/>
<path d="M139.095 142.78H134.524V147.351H139.095V142.78Z" fill="#202020"/>
<path d="M139.095 161.076H134.524V165.646H139.095V161.076Z" fill="#202020"/>
<path d="M143.667 78.7041H139.097V83.2749H143.667V78.7041Z" fill="#202020"/>
<path d="M143.667 92.4336H139.097V97.0044H143.667V92.4336Z" fill="#202020"/>
<path d="M143.667 101.595H139.097V106.166H143.667V101.595Z" fill="#202020"/>
<path d="M143.667 106.162H139.097V110.733H143.667V106.162Z" fill="#202020"/>
<path d="M143.667 119.894H139.097V124.464H143.667V119.894Z" fill="#202020"/>
<path d="M143.667 124.463H139.097V129.034H143.667V124.463Z" fill="#202020"/>
<path d="M143.667 142.78H139.097V147.351H143.667V142.78Z" fill="#202020"/>
<path d="M143.667 147.346H139.097V151.916H143.667V147.346Z" fill="#202020"/>
<path d="M143.667 156.508H139.097V161.079H143.667V156.508Z" fill="#202020"/>
<path d="M143.667 161.076H139.097V165.646H143.667V161.076Z" fill="#202020"/>
<path d="M148.247 69.5508H143.676V74.1216H148.247V69.5508Z" fill="#202020"/>
<path d="M148.247 78.7041H143.676V83.2749H148.247V78.7041Z" fill="#202020"/>
<path d="M148.247 83.2778H143.676V87.8486H148.247V83.2778Z" fill="#202020"/>
<path d="M148.247 87.8657H143.676V92.4365H148.247V87.8657Z" fill="#202020"/>
<path d="M148.247 97.0039H143.676V101.575H148.247V97.0039Z" fill="#202020"/>
<path d="M148.247 101.595H143.676V106.166H148.247V101.595Z" fill="#202020"/>
<path d="M148.247 106.162H143.676V110.733H148.247V106.162Z" fill="#202020"/>
<path d="M148.247 119.894H143.676V124.464H148.247V119.894Z" fill="#202020"/>
<path d="M148.247 124.463H143.676V129.034H148.247V124.463Z" fill="#202020"/>
<path d="M148.247 129.048H143.676V133.619H148.247V129.048Z" fill="#202020"/>
<path d="M148.247 133.624H143.676V138.194H148.247V133.624Z" fill="#202020"/>
<path d="M148.247 138.206H143.676V142.777H148.247V138.206Z" fill="#202020"/>
<path d="M148.247 142.78H143.676V147.351H148.247V142.78Z" fill="#202020"/>
<path d="M152.812 78.7041H148.241V83.2749H152.812V78.7041Z" fill="#202020"/>
<path d="M152.812 92.4336H148.241V97.0044H152.812V92.4336Z" fill="#202020"/>
<path d="M152.812 97.0039H148.241V101.575H152.812V97.0039Z" fill="#202020"/>
<path d="M152.812 115.319H148.241V119.89H152.812V115.319Z" fill="#202020"/>
<path d="M152.812 138.206H148.241V142.777H152.812V138.206Z" fill="#202020"/>
<path d="M152.812 147.346H148.241V151.916H152.812V147.346Z" fill="#202020"/>
<path d="M152.812 156.508H148.241V161.079H152.812V156.508Z" fill="#202020"/>
<path d="M157.416 78.7041H152.845V83.2749H157.416V78.7041Z" fill="#202020"/>
<path d="M157.416 83.2778H152.845V87.8486H157.416V83.2778Z" fill="#202020"/>
<path d="M157.416 87.8657H152.845V92.4365H157.416V87.8657Z" fill="#202020"/>
<path d="M157.416 92.4336H152.845V97.0044H157.416V92.4336Z" fill="#202020"/>
<path d="M157.416 101.595H152.845V106.166H157.416V101.595Z" fill="#202020"/>
<path d="M157.416 115.319H152.845V119.89H157.416V115.319Z" fill="#202020"/>
<path d="M157.416 119.894H152.845V124.464H157.416V119.894Z" fill="#202020"/>
<path d="M157.416 124.463H152.845V129.034H157.416V124.463Z" fill="#202020"/>
<path d="M157.416 129.048H152.845V133.619H157.416V129.048Z" fill="#202020"/>
<path d="M157.416 147.346H152.845V151.916H157.416V147.346Z" fill="#202020"/>
<path d="M157.416 156.508H152.845V161.079H157.416V156.508Z" fill="#202020"/>
<path d="M157.416 161.076H152.845V165.646H157.416V161.076Z" fill="#202020"/>
<path d="M161.964 69.5508H157.394V74.1216H161.964V69.5508Z" fill="#202020"/>
<path d="M161.964 74.1357H157.394V78.7065H161.964V74.1357Z" fill="#202020"/>
<path d="M161.964 83.2778H157.394V87.8486H161.964V83.2778Z" fill="#202020"/>
<path d="M161.964 101.595H157.394V106.166H161.964V101.595Z" fill="#202020"/>
<path d="M161.964 106.162H157.394V110.733H161.964V106.162Z" fill="#202020"/>
<path d="M161.964 110.734H157.394V115.305H161.964V110.734Z" fill="#202020"/>
<path d="M161.964 115.319H157.394V119.89H161.964V115.319Z" fill="#202020"/>
<path d="M161.964 119.894H157.394V124.464H161.964V119.894Z" fill="#202020"/>
<path d="M161.964 124.463H157.394V129.034H161.964V124.463Z" fill="#202020"/>
<path d="M161.964 129.048H157.394V133.619H161.964V129.048Z" fill="#202020"/>
<path d="M161.964 138.206H157.394V142.777H161.964V138.206Z" fill="#202020"/>
<path d="M161.964 147.346H157.394V151.916H161.964V147.346Z" fill="#202020"/>
<path d="M161.964 156.508H157.394V161.079H161.964V156.508Z" fill="#202020"/>
<path d="M161.964 161.076H157.394V165.646H161.964V161.076Z" fill="#202020"/>
<path d="M166.537 74.1357H161.966V78.7065H166.537V74.1357Z" fill="#202020"/>
<path d="M166.537 83.2778H161.966V87.8486H166.537V83.2778Z" fill="#202020"/>
<path d="M166.537 97.0039H161.966V101.575H166.537V97.0039Z" fill="#202020"/>
<path d="M166.537 110.734H161.966V115.305H166.537V110.734Z" fill="#202020"/>
<path d="M166.537 124.463H161.966V129.034H166.537V124.463Z" fill="#202020"/>
<path d="M166.537 133.624H161.966V138.194H166.537V133.624Z" fill="#202020"/>
<path d="M166.537 142.78H161.966V147.351H166.537V142.78Z" fill="#202020"/>
<path d="M166.537 156.508H161.966V161.079H166.537V156.508Z" fill="#202020"/>
<path d="M104.349 91.4261H96.1314C95.0484 91.4261 94.1885 90.5502 94.1885 89.4673C94.1885 88.3842 95.0644 87.5083 96.1314 87.5083H104.349C105.432 87.5083 106.292 88.3842 106.292 89.4673C106.308 90.5502 105.432 91.4261 104.349 91.4261Z" fill="#202020"/>
<path d="M110.304 97.9374H90.1731C89.1062 97.9374 88.2461 97.0614 88.2461 95.9785C88.2461 94.8955 89.1062 94.0195 90.1731 94.0195H110.304C111.371 94.0195 112.231 94.8955 112.231 95.9785C112.231 97.0614 111.371 97.9374 110.304 97.9374Z" fill="#202020"/>
<path d="M108.62 104.436H91.8816C90.8146 104.436 89.9546 103.56 89.9546 102.478C89.9546 101.394 90.8146 100.519 91.8816 100.519H108.62C109.687 100.519 110.547 101.394 110.547 102.478C110.531 103.56 109.671 104.436 108.62 104.436Z" fill="#202020"/>
<path d="M103.457 110.934H97.0704C95.9874 110.934 95.1274 110.058 95.1274 108.976C95.1274 107.893 96.0034 107.017 97.0704 107.017H103.457C104.54 107.017 105.4 107.893 105.4 108.976C105.4 110.058 104.524 110.934 103.457 110.934Z" fill="#202020"/>
</g>
<path d="M202.524 77.0027C202.524 76.7229 202.481 76.4742 202.394 76.2566C202.313 76.039 202.167 75.84 201.955 75.6597C201.744 75.4794 201.445 75.3053 201.06 75.1375C200.681 74.9634 200.196 74.7862 199.605 74.6059C198.958 74.4069 198.362 74.1862 197.814 73.9437C197.273 73.695 196.801 73.409 196.397 73.0857C195.993 72.7562 195.679 72.38 195.455 71.9572C195.231 71.5282 195.119 71.0339 195.119 70.4744C195.119 69.921 195.234 69.4174 195.464 68.9635C195.7 68.5097 196.033 68.118 196.462 67.7884C196.897 67.4527 197.41 67.1947 198.001 67.0144C198.592 66.8278 199.244 66.7346 199.959 66.7346C200.967 66.7346 201.834 66.9211 202.561 67.2941C203.295 67.6672 203.858 68.1677 204.249 68.7957C204.647 69.4236 204.846 70.1169 204.846 70.8754H202.524C202.524 70.4277 202.428 70.0329 202.235 69.691C202.048 69.3428 201.762 69.0692 201.377 68.8703C200.998 68.6713 200.516 68.5718 199.931 68.5718C199.378 68.5718 198.918 68.6558 198.551 68.8236C198.184 68.9915 197.911 69.2184 197.73 69.5044C197.55 69.7904 197.46 70.1138 197.46 70.4744C197.46 70.7293 197.519 70.9624 197.637 71.1738C197.755 71.379 197.936 71.5717 198.178 71.7521C198.421 71.9261 198.725 72.0909 199.092 72.2463C199.459 72.4018 199.891 72.551 200.388 72.694C201.141 72.9178 201.797 73.1665 202.356 73.4401C202.916 73.7074 203.382 74.0121 203.755 74.3541C204.128 74.696 204.408 75.0846 204.595 75.5198C204.781 75.9488 204.874 76.4369 204.874 76.984C204.874 77.556 204.759 78.0721 204.529 78.5322C204.299 78.9861 203.97 79.3746 203.541 79.6979C203.118 80.015 202.608 80.2606 202.011 80.4347C201.421 80.6026 200.761 80.6865 200.034 80.6865C199.381 80.6865 198.738 80.5995 198.104 80.4254C197.476 80.2513 196.904 79.9871 196.388 79.6327C195.871 79.2721 195.461 78.8244 195.156 78.2897C194.852 77.7488 194.699 77.1177 194.699 76.3965H197.04C197.04 76.8379 197.115 77.2141 197.264 77.525C197.42 77.8358 197.634 78.0907 197.908 78.2897C198.181 78.4824 198.498 78.6254 198.859 78.7187C199.226 78.812 199.617 78.8586 200.034 78.8586C200.581 78.8586 201.038 78.7809 201.405 78.6254C201.778 78.47 202.058 78.2524 202.244 77.9726C202.431 77.6928 202.524 77.3695 202.524 77.0027ZM211.163 78.8959C211.53 78.8959 211.859 78.8244 212.152 78.6814C212.45 78.5322 212.689 78.327 212.87 78.0659C213.056 77.8047 213.159 77.5032 213.178 77.1612H215.295C215.282 77.8141 215.089 78.4078 214.716 78.9425C214.343 79.4772 213.849 79.9031 213.233 80.2202C212.618 80.5311 211.937 80.6865 211.191 80.6865C210.42 80.6865 209.749 80.556 209.177 80.2948C208.605 80.0275 208.129 79.6606 207.75 79.1943C207.37 78.728 207.084 78.1902 206.892 77.5809C206.705 76.9716 206.612 76.3188 206.612 75.6224V75.296C206.612 74.5996 206.705 73.9468 206.892 73.3375C207.084 72.722 207.37 72.1811 207.75 71.7147C208.129 71.2484 208.605 70.8847 209.177 70.6236C209.749 70.3562 210.417 70.2226 211.182 70.2226C211.99 70.2226 212.699 70.3842 213.308 70.7075C213.917 71.0246 214.396 71.4692 214.744 72.0412C215.099 72.6069 215.282 73.266 215.295 74.0183H213.178C213.159 73.6453 213.066 73.3095 212.898 73.0111C212.736 72.7064 212.506 72.4639 212.208 72.2836C211.915 72.1033 211.564 72.0132 211.154 72.0132C210.7 72.0132 210.324 72.1064 210.025 72.293C209.727 72.4733 209.494 72.722 209.326 73.0391C209.158 73.3499 209.037 73.7012 208.962 74.0929C208.894 74.4784 208.86 74.8794 208.86 75.296V75.6224C208.86 76.039 208.894 76.4431 208.962 76.8348C209.03 77.2265 209.149 77.5778 209.316 77.8887C209.491 78.1933 209.727 78.4389 210.025 78.6254C210.324 78.8057 210.703 78.8959 211.163 78.8959ZM223.029 78.4762V73.6639C223.029 73.3033 222.964 72.9924 222.833 72.7313C222.702 72.4702 222.503 72.2681 222.236 72.1251C221.975 71.9821 221.645 71.9106 221.248 71.9106C220.881 71.9106 220.564 71.9728 220.296 72.0971C220.029 72.2215 219.821 72.3893 219.671 72.6007C219.522 72.8121 219.448 73.0515 219.448 73.3188H217.209C217.209 72.9209 217.306 72.5354 217.498 72.1624C217.691 71.7894 217.971 71.4567 218.338 71.1645C218.705 70.8723 219.143 70.6422 219.653 70.4744C220.163 70.3065 220.735 70.2226 221.369 70.2226C222.127 70.2226 222.799 70.35 223.383 70.6049C223.974 70.8598 224.437 71.2453 224.773 71.7614C225.115 72.2712 225.286 72.9116 225.286 73.6826V78.1685C225.286 78.6285 225.317 79.042 225.379 79.4088C225.447 79.7694 225.544 80.0834 225.668 80.3508V80.5H223.365C223.259 80.2575 223.175 79.9498 223.113 79.5767C223.057 79.1974 223.029 78.8306 223.029 78.4762ZM223.355 74.3634L223.374 75.753H221.761C221.344 75.753 220.977 75.7934 220.66 75.8742C220.343 75.9488 220.079 76.0607 219.867 76.21C219.656 76.3592 219.497 76.5395 219.392 76.7509C219.286 76.9623 219.233 77.2016 219.233 77.469C219.233 77.7363 219.295 77.9819 219.42 78.2058C219.544 78.4234 219.724 78.5944 219.961 78.7187C220.203 78.8431 220.495 78.9052 220.837 78.9052C221.297 78.9052 221.698 78.812 222.04 78.6254C222.388 78.4327 222.662 78.1995 222.861 77.926C223.06 77.6462 223.166 77.3819 223.178 77.1333L223.906 78.1312C223.831 78.3861 223.703 78.6596 223.523 78.9519C223.343 79.2441 223.107 79.5239 222.814 79.7912C222.528 80.0523 222.183 80.2668 221.779 80.4347C221.381 80.6026 220.921 80.6865 220.399 80.6865C219.74 80.6865 219.152 80.556 218.636 80.2948C218.12 80.0275 217.716 79.67 217.424 79.2223C217.132 78.7684 216.986 78.2555 216.986 77.6835C216.986 77.1488 217.085 76.6763 217.284 76.2659C217.489 75.8493 217.788 75.5012 218.179 75.2214C218.577 74.9416 219.062 74.7302 219.634 74.5872C220.206 74.438 220.859 74.3634 221.593 74.3634H223.355ZM230.185 72.5634V80.5H227.937V70.4091H230.054L230.185 72.5634ZM229.784 75.0815L229.056 75.0722C229.063 74.3572 229.162 73.7012 229.355 73.1043C229.554 72.5075 229.827 71.9945 230.176 71.5655C230.53 71.1365 230.953 70.807 231.444 70.577C231.935 70.3407 232.482 70.2226 233.085 70.2226C233.57 70.2226 234.009 70.291 234.4 70.4277C234.798 70.5583 235.137 70.7728 235.417 71.0712C235.703 71.3697 235.921 71.7583 236.07 72.237C236.219 72.7095 236.294 73.2909 236.294 73.981V80.5H234.037V73.9717C234.037 73.4867 233.965 73.1043 233.822 72.8246C233.685 72.5386 233.483 72.3365 233.216 72.2184C232.955 72.094 232.628 72.0318 232.237 72.0318C231.851 72.0318 231.506 72.1127 231.202 72.2743C230.897 72.436 230.639 72.6567 230.427 72.9365C230.222 73.2163 230.064 73.5396 229.952 73.9064C229.84 74.2732 229.784 74.6649 229.784 75.0815ZM248.61 70.4091V72.0505H242.921V70.4091H248.61ZM244.562 67.9376H246.81V77.7115C246.81 78.0223 246.854 78.2617 246.941 78.4296C247.034 78.5912 247.161 78.7 247.323 78.756C247.485 78.812 247.674 78.8399 247.892 78.8399C248.047 78.8399 248.197 78.8306 248.34 78.812C248.483 78.7933 248.598 78.7747 248.685 78.756L248.694 80.472C248.507 80.528 248.29 80.5777 248.041 80.6212C247.799 80.6648 247.519 80.6865 247.202 80.6865C246.686 80.6865 246.229 80.5964 245.831 80.4161C245.433 80.2295 245.122 79.928 244.898 79.5114C244.674 79.0949 244.562 78.5415 244.562 77.8514V67.9376ZM252.884 66.175V80.5H250.646V66.175H252.884ZM252.493 75.0815L251.765 75.0722C251.771 74.3758 251.868 73.7323 252.054 73.1417C252.247 72.551 252.514 72.0381 252.856 71.6028C253.204 71.1614 253.621 70.8225 254.106 70.5863C254.591 70.3438 255.129 70.2226 255.719 70.2226C256.217 70.2226 256.664 70.291 257.062 70.4277C257.467 70.5645 257.815 70.7852 258.107 71.0899C258.399 71.3883 258.62 71.78 258.769 72.265C258.925 72.7437 259.002 73.3282 259.002 74.0183V80.5H256.745V73.9997C256.745 73.5147 256.674 73.1292 256.531 72.8432C256.394 72.5572 256.192 72.352 255.925 72.2277C255.657 72.0971 255.331 72.0318 254.945 72.0318C254.541 72.0318 254.184 72.1127 253.873 72.2743C253.568 72.436 253.313 72.6567 253.108 72.9365C252.903 73.2163 252.747 73.5396 252.642 73.9064C252.542 74.2732 252.493 74.6649 252.493 75.0815ZM266.046 80.6865C265.3 80.6865 264.626 80.5653 264.023 80.3228C263.426 80.0741 262.916 79.729 262.493 79.2876C262.077 78.8462 261.756 78.327 261.533 77.7301C261.309 77.1333 261.197 76.4897 261.197 75.7996V75.4266C261.197 74.6369 261.312 73.9219 261.542 73.2815C261.772 72.6411 262.092 72.094 262.502 71.6401C262.913 71.18 263.398 70.8288 263.957 70.5863C264.517 70.3438 265.123 70.2226 265.776 70.2226C266.497 70.2226 267.128 70.3438 267.669 70.5863C268.21 70.8288 268.658 71.1707 269.012 71.6122C269.373 72.0474 269.64 72.5665 269.814 73.1696C269.994 73.7727 270.085 74.438 270.085 75.1654V76.126H262.288V74.5126H267.865V74.3354C267.853 73.9313 267.772 73.552 267.623 73.1976C267.48 72.8432 267.259 72.5572 266.96 72.3396C266.662 72.122 266.264 72.0132 265.767 72.0132C265.394 72.0132 265.061 72.094 264.769 72.2557C264.483 72.4111 264.243 72.638 264.051 72.9365C263.858 73.2349 263.709 73.5955 263.603 74.0183C263.503 74.4349 263.454 74.9043 263.454 75.4266V75.7996C263.454 76.241 263.513 76.6514 263.631 77.0307C263.755 77.4037 263.936 77.7301 264.172 78.0099C264.408 78.2897 264.694 78.5104 265.03 78.6721C265.366 78.8275 265.748 78.9052 266.177 78.9052C266.718 78.9052 267.2 78.7964 267.623 78.5788C268.045 78.3612 268.412 78.0534 268.723 77.6555L269.907 78.8026C269.69 79.1197 269.407 79.4244 269.059 79.7166C268.711 80.0026 268.285 80.2358 267.781 80.4161C267.284 80.5964 266.705 80.6865 266.046 80.6865ZM284.649 78.6907L288.221 81.5259L286.7 82.8595L283.194 80.0523L284.649 78.6907ZM288.249 73.3375V74.0836C288.249 75.1095 288.115 76.0297 287.847 76.8441C287.58 77.6586 287.198 78.3519 286.7 78.9239C286.203 79.4959 285.609 79.9342 284.919 80.2389C284.229 80.5373 283.464 80.6865 282.625 80.6865C281.792 80.6865 281.03 80.5373 280.34 80.2389C279.656 79.9342 279.062 79.4959 278.559 78.9239C278.055 78.3519 277.663 77.6586 277.384 76.8441C277.11 76.0297 276.973 75.1095 276.973 74.0836V73.3375C276.973 72.3116 277.11 71.3945 277.384 70.5863C277.657 69.7718 278.043 69.0785 278.54 68.5065C279.044 67.9283 279.637 67.49 280.321 67.1916C281.011 66.8869 281.773 66.7346 282.606 66.7346C283.446 66.7346 284.21 66.8869 284.9 67.1916C285.597 67.49 286.194 67.9283 286.691 68.5065C287.188 69.0785 287.571 69.7718 287.838 70.5863C288.112 71.3945 288.249 72.3116 288.249 73.3375ZM285.898 74.0836V73.3188C285.898 72.5603 285.824 71.8919 285.674 71.3137C285.531 70.7293 285.317 70.2412 285.031 69.8495C284.751 69.4516 284.406 69.1532 283.996 68.9542C283.592 68.749 283.128 68.6464 282.606 68.6464C282.096 68.6464 281.639 68.749 281.235 68.9542C280.831 69.1532 280.486 69.4516 280.2 69.8495C279.914 70.2412 279.696 70.7293 279.547 71.3137C279.398 71.8919 279.323 72.5603 279.323 73.3188V74.0836C279.323 74.8421 279.398 75.5136 279.547 76.098C279.696 76.6825 279.914 77.1768 280.2 77.5809C280.492 77.9788 280.84 78.2804 281.245 78.4855C281.655 78.6845 282.115 78.784 282.625 78.784C283.147 78.784 283.61 78.6845 284.014 78.4855C284.419 78.2804 284.761 77.9788 285.04 77.5809C285.32 77.1768 285.531 76.6825 285.674 76.098C285.824 75.5136 285.898 74.8421 285.898 74.0836ZM290.947 66.9211H295.75C296.782 66.9211 297.662 67.0765 298.389 67.3874C299.116 67.6983 299.673 68.1584 300.058 68.7677C300.45 69.3708 300.646 70.1169 300.646 71.006C300.646 71.6837 300.522 72.2805 300.273 72.7966C300.024 73.3126 299.673 73.7479 299.219 74.1022C298.765 74.4504 298.224 74.7209 297.596 74.9136L296.887 75.2587H292.569L292.551 73.4028H295.787C296.347 73.4028 296.813 73.3033 297.186 73.1043C297.559 72.9054 297.839 72.6349 298.025 72.293C298.218 71.9448 298.314 71.5531 298.314 71.1179C298.314 70.6453 298.221 70.235 298.035 69.8868C297.854 69.5324 297.574 69.262 297.195 69.0754C296.816 68.8827 296.334 68.7863 295.75 68.7863H293.288V80.5H290.947V66.9211ZM298.697 80.5L295.507 74.4007L297.96 74.3914L301.196 80.3788V80.5H298.697ZM199.279 103.896C199.645 103.896 199.975 103.824 200.267 103.681C200.566 103.532 200.805 103.327 200.985 103.066C201.172 102.805 201.274 102.503 201.293 102.161H203.41C203.398 102.814 203.205 103.408 202.832 103.943C202.459 104.477 201.965 104.903 201.349 105.22C200.733 105.531 200.053 105.687 199.307 105.687C198.536 105.687 197.864 105.556 197.292 105.295C196.72 105.027 196.244 104.661 195.865 104.194C195.486 103.728 195.2 103.19 195.007 102.581C194.821 101.972 194.727 101.319 194.727 100.622V100.296C194.727 99.5996 194.821 98.9468 195.007 98.3375C195.2 97.722 195.486 97.1811 195.865 96.7147C196.244 96.2484 196.72 95.8847 197.292 95.6236C197.864 95.3562 198.533 95.2226 199.297 95.2226C200.106 95.2226 200.814 95.3842 201.424 95.7075C202.033 96.0246 202.512 96.4692 202.86 97.0412C203.214 97.6069 203.398 98.266 203.41 99.0183H201.293C201.274 98.6453 201.181 98.3095 201.013 98.0111C200.852 97.7064 200.622 97.4639 200.323 97.2836C200.031 97.1033 199.68 97.0132 199.269 97.0132C198.815 97.0132 198.439 97.1064 198.141 97.293C197.842 97.4733 197.609 97.722 197.441 98.0391C197.273 98.3499 197.152 98.7012 197.078 99.0929C197.009 99.4784 196.975 99.8794 196.975 100.296V100.622C196.975 101.039 197.009 101.443 197.078 101.835C197.146 102.227 197.264 102.578 197.432 102.889C197.606 103.193 197.842 103.439 198.141 103.625C198.439 103.806 198.819 103.896 199.279 103.896ZM205.026 100.566V100.352C205.026 99.6245 205.132 98.9499 205.344 98.3282C205.555 97.7002 205.86 97.1562 206.257 96.6961C206.662 96.2298 207.153 95.8692 207.731 95.6143C208.315 95.3531 208.975 95.2226 209.708 95.2226C210.448 95.2226 211.107 95.3531 211.685 95.6143C212.27 95.8692 212.764 96.2298 213.168 96.6961C213.572 97.1562 213.88 97.7002 214.091 98.3282C214.303 98.9499 214.409 99.6245 214.409 100.352V100.566C214.409 101.294 214.303 101.968 214.091 102.59C213.88 103.212 213.572 103.756 213.168 104.222C212.764 104.682 212.273 105.043 211.695 105.304C211.116 105.559 210.46 105.687 209.727 105.687C208.987 105.687 208.325 105.559 207.74 105.304C207.162 105.043 206.671 104.682 206.267 104.222C205.863 103.756 205.555 103.212 205.344 102.59C205.132 101.968 205.026 101.294 205.026 100.566ZM207.274 100.352V100.566C207.274 101.02 207.321 101.449 207.414 101.853C207.507 102.258 207.653 102.612 207.852 102.917C208.051 103.221 208.306 103.461 208.617 103.635C208.928 103.809 209.298 103.896 209.727 103.896C210.143 103.896 210.504 103.809 210.809 103.635C211.12 103.461 211.374 103.221 211.573 102.917C211.772 102.612 211.918 102.258 212.012 101.853C212.111 101.449 212.161 101.02 212.161 100.566V100.352C212.161 99.9043 212.111 99.4815 212.012 99.0836C211.918 98.6795 211.769 98.322 211.564 98.0111C211.365 97.7002 211.11 97.4577 210.799 97.2836C210.495 97.1033 210.131 97.0132 209.708 97.0132C209.285 97.0132 208.919 97.1033 208.608 97.2836C208.303 97.4577 208.051 97.7002 207.852 98.0111C207.653 98.322 207.507 98.6795 207.414 99.0836C207.321 99.4815 207.274 99.9043 207.274 100.352ZM222.768 103.411V91.175H225.025V105.5H222.982L222.768 103.411ZM216.202 100.566V100.371C216.202 99.6059 216.292 98.9095 216.473 98.2815C216.653 97.6474 216.914 97.1033 217.256 96.6495C217.598 96.1894 218.014 95.8381 218.506 95.5956C218.997 95.3469 219.55 95.2226 220.166 95.2226C220.775 95.2226 221.31 95.3407 221.77 95.577C222.23 95.8132 222.622 96.1521 222.945 96.5935C223.268 97.0287 223.526 97.551 223.719 98.1603C223.912 98.7634 224.049 99.4349 224.129 100.175V100.8C224.049 101.521 223.912 102.18 223.719 102.777C223.526 103.374 223.268 103.89 222.945 104.325C222.622 104.76 222.227 105.096 221.761 105.332C221.3 105.568 220.763 105.687 220.147 105.687C219.538 105.687 218.988 105.559 218.496 105.304C218.011 105.049 217.598 104.692 217.256 104.232C216.914 103.772 216.653 103.231 216.473 102.609C216.292 101.981 216.202 101.3 216.202 100.566ZM218.45 100.371V100.566C218.45 101.027 218.49 101.456 218.571 101.853C218.658 102.251 218.792 102.603 218.972 102.907C219.152 103.206 219.385 103.442 219.671 103.616C219.964 103.784 220.312 103.868 220.716 103.868C221.226 103.868 221.645 103.756 221.975 103.532C222.305 103.308 222.563 103.007 222.749 102.628C222.942 102.242 223.072 101.813 223.141 101.341V99.6525C223.103 99.2857 223.026 98.9437 222.908 98.6266C222.796 98.3095 222.643 98.0328 222.451 97.7966C222.258 97.5541 222.019 97.3676 221.733 97.237C221.453 97.1002 221.12 97.0318 220.735 97.0318C220.324 97.0318 219.976 97.1189 219.69 97.293C219.404 97.4671 219.168 97.7064 218.981 98.0111C218.801 98.3157 218.667 98.6701 218.58 99.0743C218.493 99.4784 218.45 99.9105 218.45 100.371ZM232.143 105.687C231.397 105.687 230.723 105.565 230.12 105.323C229.523 105.074 229.013 104.729 228.59 104.288C228.174 103.846 227.853 103.327 227.63 102.73C227.406 102.133 227.294 101.49 227.294 100.8V100.427C227.294 99.6369 227.409 98.9219 227.639 98.2815C227.869 97.6411 228.189 97.094 228.6 96.6401C229.01 96.18 229.495 95.8288 230.054 95.5863C230.614 95.3438 231.22 95.2226 231.873 95.2226C232.594 95.2226 233.225 95.3438 233.766 95.5863C234.307 95.8288 234.755 96.1707 235.109 96.6122C235.47 97.0474 235.737 97.5665 235.911 98.1696C236.092 98.7727 236.182 99.438 236.182 100.165V101.126H228.385V99.5126H233.962V99.3354C233.95 98.9313 233.869 98.552 233.72 98.1976C233.577 97.8432 233.356 97.5572 233.057 97.3396C232.759 97.122 232.361 97.0132 231.864 97.0132C231.491 97.0132 231.158 97.094 230.866 97.2557C230.58 97.4111 230.34 97.638 230.148 97.9365C229.955 98.2349 229.806 98.5955 229.7 99.0183C229.601 99.4349 229.551 99.9043 229.551 100.427V100.8C229.551 101.241 229.61 101.651 229.728 102.031C229.852 102.404 230.033 102.73 230.269 103.01C230.505 103.29 230.791 103.51 231.127 103.672C231.463 103.828 231.845 103.905 232.274 103.905C232.815 103.905 233.297 103.796 233.72 103.579C234.142 103.361 234.509 103.053 234.82 102.656L236.004 103.803C235.787 104.12 235.504 104.424 235.156 104.717C234.808 105.003 234.382 105.236 233.878 105.416C233.381 105.596 232.802 105.687 232.143 105.687ZM247.957 95.4091V97.0505H242.268V95.4091H247.957ZM243.91 92.9376H246.157V102.711C246.157 103.022 246.201 103.262 246.288 103.43C246.381 103.591 246.508 103.7 246.67 103.756C246.832 103.812 247.021 103.84 247.239 103.84C247.394 103.84 247.544 103.831 247.687 103.812C247.83 103.793 247.945 103.775 248.032 103.756L248.041 105.472C247.855 105.528 247.637 105.578 247.388 105.621C247.146 105.665 246.866 105.687 246.549 105.687C246.033 105.687 245.576 105.596 245.178 105.416C244.78 105.23 244.469 104.928 244.245 104.511C244.021 104.095 243.91 103.542 243.91 102.851V92.9376ZM249.359 100.566V100.352C249.359 99.6245 249.465 98.9499 249.676 98.3282C249.887 97.7002 250.192 97.1562 250.59 96.6961C250.994 96.2298 251.485 95.8692 252.064 95.6143C252.648 95.3531 253.307 95.2226 254.041 95.2226C254.781 95.2226 255.44 95.3531 256.018 95.6143C256.602 95.8692 257.097 96.2298 257.501 96.6961C257.905 97.1562 258.213 97.7002 258.424 98.3282C258.635 98.9499 258.741 99.6245 258.741 100.352V100.566C258.741 101.294 258.635 101.968 258.424 102.59C258.213 103.212 257.905 103.756 257.501 104.222C257.097 104.682 256.605 105.043 256.027 105.304C255.449 105.559 254.793 105.687 254.059 105.687C253.319 105.687 252.657 105.559 252.073 105.304C251.495 105.043 251.003 104.682 250.599 104.222C250.195 103.756 249.887 103.212 249.676 102.59C249.465 101.968 249.359 101.294 249.359 100.566ZM251.607 100.352V100.566C251.607 101.02 251.653 101.449 251.746 101.853C251.84 102.258 251.986 102.612 252.185 102.917C252.384 103.221 252.639 103.461 252.95 103.635C253.26 103.809 253.63 103.896 254.059 103.896C254.476 103.896 254.837 103.809 255.141 103.635C255.452 103.461 255.707 103.221 255.906 102.917C256.105 102.612 256.251 102.258 256.344 101.853C256.444 101.449 256.493 101.02 256.493 100.566V100.352C256.493 99.9043 256.444 99.4815 256.344 99.0836C256.251 98.6795 256.102 98.322 255.897 98.0111C255.698 97.7002 255.443 97.4577 255.132 97.2836C254.827 97.1033 254.463 97.0132 254.041 97.0132C253.618 97.0132 253.251 97.1033 252.94 97.2836C252.636 97.4577 252.384 97.7002 252.185 98.0111C251.986 98.322 251.84 98.6795 251.746 99.0836C251.653 99.4815 251.607 99.9043 251.607 100.352ZM272.484 95.4091H274.527V105.22C274.527 106.128 274.334 106.899 273.949 107.533C273.563 108.167 273.025 108.649 272.335 108.979C271.645 109.314 270.846 109.482 269.938 109.482C269.553 109.482 269.124 109.426 268.651 109.314C268.185 109.202 267.731 109.022 267.29 108.773C266.854 108.531 266.491 108.211 266.199 107.813L267.252 106.489C267.613 106.918 268.011 107.232 268.446 107.431C268.881 107.629 269.338 107.729 269.817 107.729C270.333 107.729 270.771 107.633 271.132 107.44C271.499 107.253 271.782 106.977 271.981 106.61C272.18 106.243 272.279 105.795 272.279 105.267V97.694L272.484 95.4091ZM265.63 100.566V100.371C265.63 99.6059 265.723 98.9095 265.909 98.2815C266.096 97.6474 266.363 97.1033 266.711 96.6495C267.06 96.1894 267.482 95.8381 267.98 95.5956C268.477 95.3469 269.04 95.2226 269.668 95.2226C270.321 95.2226 270.877 95.3407 271.337 95.577C271.804 95.8132 272.192 96.1521 272.503 96.5935C272.814 97.0287 273.056 97.551 273.23 98.1603C273.411 98.7634 273.544 99.4349 273.631 100.175V100.8C273.551 101.521 273.414 102.18 273.221 102.777C273.028 103.374 272.773 103.89 272.456 104.325C272.139 104.76 271.748 105.096 271.281 105.332C270.821 105.568 270.277 105.687 269.649 105.687C269.034 105.687 268.477 105.559 267.98 105.304C267.489 105.049 267.066 104.692 266.711 104.232C266.363 103.772 266.096 103.231 265.909 102.609C265.723 101.981 265.63 101.3 265.63 100.566ZM267.877 100.371V100.566C267.877 101.027 267.921 101.456 268.008 101.853C268.101 102.251 268.241 102.603 268.427 102.907C268.62 103.206 268.863 103.442 269.155 103.616C269.453 103.784 269.805 103.868 270.209 103.868C270.737 103.868 271.169 103.756 271.505 103.532C271.847 103.308 272.108 103.007 272.289 102.628C272.475 102.242 272.606 101.813 272.68 101.341V99.6525C272.643 99.2857 272.565 98.9437 272.447 98.6266C272.335 98.3095 272.183 98.0328 271.99 97.7966C271.797 97.5541 271.555 97.3676 271.263 97.237C270.97 97.1002 270.625 97.0318 270.227 97.0318C269.823 97.0318 269.472 97.1189 269.174 97.293C268.875 97.4671 268.63 97.7064 268.437 98.0111C268.25 98.3157 268.11 98.6701 268.017 99.0743C267.924 99.4784 267.877 99.9105 267.877 100.371ZM281.627 105.687C280.881 105.687 280.206 105.565 279.603 105.323C279.006 105.074 278.496 104.729 278.074 104.288C277.657 103.846 277.337 103.327 277.113 102.73C276.889 102.133 276.777 101.49 276.777 100.8V100.427C276.777 99.6369 276.892 98.9219 277.122 98.2815C277.352 97.6411 277.673 97.094 278.083 96.6401C278.493 96.18 278.978 95.8288 279.538 95.5863C280.097 95.3438 280.704 95.2226 281.356 95.2226C282.078 95.2226 282.709 95.3438 283.25 95.5863C283.791 95.8288 284.238 96.1707 284.593 96.6122C284.953 97.0474 285.221 97.5665 285.395 98.1696C285.575 98.7727 285.665 99.438 285.665 100.165V101.126H277.868V99.5126H283.446V99.3354C283.433 98.9313 283.352 98.552 283.203 98.1976C283.06 97.8432 282.839 97.5572 282.541 97.3396C282.242 97.122 281.845 97.0132 281.347 97.0132C280.974 97.0132 280.641 97.094 280.349 97.2557C280.063 97.4111 279.824 97.638 279.631 97.9365C279.438 98.2349 279.289 98.5955 279.183 99.0183C279.084 99.4349 279.034 99.9043 279.034 100.427V100.8C279.034 101.241 279.093 101.651 279.211 102.031C279.336 102.404 279.516 102.73 279.752 103.01C279.989 103.29 280.275 103.51 280.61 103.672C280.946 103.828 281.328 103.905 281.757 103.905C282.298 103.905 282.78 103.796 283.203 103.579C283.626 103.361 283.993 103.053 284.304 102.656L285.488 103.803C285.27 104.12 284.987 104.424 284.639 104.717C284.291 105.003 283.865 105.236 283.362 105.416C282.864 105.596 282.286 105.687 281.627 105.687ZM292.364 95.4091V97.0505H286.675V95.4091H292.364ZM288.317 92.9376H290.564V102.711C290.564 103.022 290.608 103.262 290.695 103.43C290.788 103.591 290.916 103.7 291.077 103.756C291.239 103.812 291.429 103.84 291.646 103.84C291.802 103.84 291.951 103.831 292.094 103.812C292.237 103.793 292.352 103.775 292.439 103.756L292.448 105.472C292.262 105.528 292.044 105.578 291.795 105.621C291.553 105.665 291.273 105.687 290.956 105.687C290.44 105.687 289.983 105.596 289.585 105.416C289.187 105.23 288.876 104.928 288.652 104.511C288.429 104.095 288.317 103.542 288.317 102.851V92.9376ZM304.121 95.4091V97.0505H298.432V95.4091H304.121ZM300.073 92.9376H302.321V102.711C302.321 103.022 302.365 103.262 302.452 103.43C302.545 103.591 302.672 103.7 302.834 103.756C302.996 103.812 303.185 103.84 303.403 103.84C303.558 103.84 303.708 103.831 303.851 103.812C303.994 103.793 304.109 103.775 304.196 103.756L304.205 105.472C304.018 105.528 303.801 105.578 303.552 105.621C303.31 105.665 303.03 105.687 302.713 105.687C302.197 105.687 301.74 105.596 301.342 105.416C300.944 105.23 300.633 104.928 300.409 104.511C300.185 104.095 300.073 103.542 300.073 102.851V92.9376ZM308.395 91.175V105.5H306.157V91.175H308.395ZM308.004 100.081L307.276 100.072C307.282 99.3758 307.379 98.7323 307.565 98.1417C307.758 97.551 308.025 97.0381 308.367 96.6028C308.716 96.1614 309.132 95.8225 309.617 95.5863C310.102 95.3438 310.64 95.2226 311.231 95.2226C311.728 95.2226 312.176 95.291 312.573 95.4277C312.978 95.5645 313.326 95.7852 313.618 96.0899C313.91 96.3883 314.131 96.78 314.28 97.265C314.436 97.7437 314.513 98.3282 314.513 99.0183V105.5H312.256V98.9997C312.256 98.5147 312.185 98.1292 312.042 97.8432C311.905 97.5572 311.703 97.352 311.436 97.2277C311.168 97.0971 310.842 97.0318 310.456 97.0318C310.052 97.0318 309.695 97.1127 309.384 97.2743C309.079 97.436 308.824 97.6567 308.619 97.9365C308.414 98.2163 308.259 98.5396 308.153 98.9064C308.053 99.2732 308.004 99.6649 308.004 100.081ZM321.557 105.687C320.811 105.687 320.137 105.565 319.534 105.323C318.937 105.074 318.427 104.729 318.004 104.288C317.588 103.846 317.267 103.327 317.044 102.73C316.82 102.133 316.708 101.49 316.708 100.8V100.427C316.708 99.6369 316.823 98.9219 317.053 98.2815C317.283 97.6411 317.603 97.094 318.014 96.6401C318.424 96.18 318.909 95.8288 319.468 95.5863C320.028 95.3438 320.634 95.2226 321.287 95.2226C322.008 95.2226 322.639 95.3438 323.18 95.5863C323.721 95.8288 324.169 96.1707 324.523 96.6122C324.884 97.0474 325.151 97.5665 325.325 98.1696C325.506 98.7727 325.596 99.438 325.596 100.165V101.126H317.799V99.5126H323.376V99.3354C323.364 98.9313 323.283 98.552 323.134 98.1976C322.991 97.8432 322.77 97.5572 322.471 97.3396C322.173 97.122 321.775 97.0132 321.278 97.0132C320.905 97.0132 320.572 97.094 320.28 97.2557C319.994 97.4111 319.754 97.638 319.562 97.9365C319.369 98.2349 319.22 98.5955 319.114 99.0183C319.015 99.4349 318.965 99.9043 318.965 100.427V100.8C318.965 101.241 319.024 101.651 319.142 102.031C319.266 102.404 319.447 102.73 319.683 103.01C319.919 103.29 320.205 103.51 320.541 103.672C320.877 103.828 321.259 103.905 321.688 103.905C322.229 103.905 322.711 103.796 323.134 103.579C323.556 103.361 323.923 103.053 324.234 102.656L325.419 103.803C325.201 104.12 324.918 104.424 324.57 104.717C324.222 105.003 323.796 105.236 323.292 105.416C322.795 105.596 322.217 105.687 321.557 105.687ZM200.472 124.363H197.012L196.994 122.657H200.015C200.525 122.657 200.957 122.582 201.312 122.433C201.672 122.277 201.946 122.057 202.132 121.771C202.319 121.478 202.412 121.127 202.412 120.717C202.412 120.263 202.325 119.893 202.151 119.607C201.977 119.321 201.71 119.113 201.349 118.982C200.995 118.852 200.541 118.786 199.987 118.786H197.721V130.5H195.38V116.921H199.987C200.733 116.921 201.399 116.993 201.983 117.136C202.574 117.279 203.074 117.502 203.485 117.807C203.901 118.106 204.215 118.485 204.427 118.945C204.644 119.405 204.753 119.952 204.753 120.586C204.753 121.146 204.619 121.659 204.352 122.125C204.085 122.585 203.69 122.961 203.168 123.254C202.645 123.546 201.996 123.72 201.218 123.776L200.472 124.363ZM200.37 130.5H196.276L197.329 128.644H200.37C200.898 128.644 201.34 128.557 201.694 128.383C202.048 128.203 202.313 127.957 202.487 127.646C202.667 127.329 202.757 126.959 202.757 126.536C202.757 126.095 202.68 125.713 202.524 125.389C202.369 125.06 202.123 124.808 201.787 124.634C201.452 124.454 201.013 124.363 200.472 124.363H197.842L197.861 122.657H201.284L201.815 123.3C202.561 123.325 203.174 123.49 203.653 123.794C204.138 124.099 204.498 124.494 204.734 124.979C204.971 125.464 205.089 125.986 205.089 126.546C205.089 127.41 204.899 128.134 204.52 128.719C204.147 129.303 203.609 129.748 202.906 130.052C202.204 130.351 201.358 130.5 200.37 130.5ZM213.616 128.122V120.409H215.873V130.5H213.746L213.616 128.122ZM213.933 126.023L214.688 126.005C214.688 126.682 214.614 127.307 214.465 127.879C214.315 128.445 214.085 128.939 213.774 129.362C213.464 129.779 213.066 130.105 212.581 130.341C212.096 130.572 211.514 130.687 210.837 130.687C210.345 130.687 209.895 130.615 209.484 130.472C209.074 130.329 208.72 130.108 208.421 129.81C208.129 129.511 207.902 129.123 207.74 128.644C207.579 128.165 207.498 127.593 207.498 126.928V120.409H209.745V126.947C209.745 127.314 209.789 127.621 209.876 127.87C209.963 128.112 210.081 128.308 210.23 128.458C210.38 128.607 210.554 128.712 210.753 128.775C210.952 128.837 211.163 128.868 211.387 128.868C212.027 128.868 212.531 128.744 212.898 128.495C213.271 128.24 213.535 127.898 213.69 127.469C213.852 127.04 213.933 126.558 213.933 126.023ZM220.744 122.461V130.5H218.496V120.409H220.613L220.744 122.461ZM220.38 125.081L219.615 125.072C219.615 124.376 219.703 123.732 219.877 123.142C220.051 122.551 220.306 122.038 220.641 121.603C220.977 121.161 221.394 120.823 221.891 120.586C222.395 120.344 222.976 120.223 223.635 120.223C224.095 120.223 224.515 120.291 224.894 120.428C225.28 120.558 225.612 120.767 225.892 121.053C226.178 121.339 226.396 121.705 226.545 122.153C226.7 122.601 226.778 123.142 226.778 123.776V130.5H224.53V123.972C224.53 123.481 224.456 123.095 224.307 122.815C224.164 122.535 223.955 122.336 223.682 122.218C223.414 122.094 223.094 122.032 222.721 122.032C222.298 122.032 221.938 122.113 221.639 122.274C221.347 122.436 221.108 122.657 220.921 122.936C220.735 123.216 220.598 123.54 220.511 123.906C220.424 124.273 220.38 124.665 220.38 125.081ZM226.638 124.485L225.584 124.718C225.584 124.108 225.668 123.533 225.836 122.992C226.01 122.445 226.262 121.967 226.591 121.556C226.927 121.14 227.341 120.813 227.832 120.577C228.323 120.341 228.886 120.223 229.52 120.223C230.036 120.223 230.496 120.294 230.9 120.437C231.311 120.574 231.659 120.791 231.945 121.09C232.231 121.388 232.448 121.777 232.598 122.256C232.747 122.728 232.821 123.3 232.821 123.972V130.5H230.564V123.962C230.564 123.453 230.49 123.058 230.341 122.778C230.198 122.498 229.992 122.305 229.725 122.2C229.458 122.088 229.138 122.032 228.764 122.032C228.416 122.032 228.109 122.097 227.841 122.228C227.58 122.352 227.359 122.529 227.179 122.759C226.999 122.983 226.862 123.241 226.769 123.533C226.682 123.826 226.638 124.143 226.638 124.485ZM235.464 116.175H237.711V128.346L237.497 130.5H235.464V116.175ZM244.295 125.361V125.557C244.295 126.303 244.212 126.99 244.044 127.618C243.882 128.24 243.633 128.781 243.298 129.241C242.968 129.701 242.558 130.059 242.066 130.313C241.582 130.562 241.019 130.687 240.378 130.687C239.75 130.687 239.203 130.568 238.737 130.332C238.271 130.096 237.879 129.76 237.562 129.325C237.251 128.89 236.999 128.371 236.807 127.767C236.614 127.164 236.477 126.499 236.396 125.772V125.147C236.477 124.413 236.614 123.748 236.807 123.151C236.999 122.548 237.251 122.029 237.562 121.594C237.879 121.152 238.268 120.813 238.728 120.577C239.194 120.341 239.738 120.223 240.36 120.223C241.006 120.223 241.575 120.347 242.066 120.596C242.564 120.844 242.977 121.199 243.307 121.659C243.636 122.113 243.882 122.654 244.044 123.282C244.212 123.91 244.295 124.603 244.295 125.361ZM242.048 125.557V125.361C242.048 124.907 242.011 124.482 241.936 124.084C241.861 123.679 241.737 123.325 241.563 123.02C241.395 122.716 241.165 122.476 240.873 122.302C240.587 122.122 240.229 122.032 239.8 122.032C239.402 122.032 239.06 122.1 238.774 122.237C238.488 122.374 238.249 122.56 238.056 122.797C237.864 123.033 237.711 123.306 237.599 123.617C237.494 123.928 237.422 124.264 237.385 124.625V126.313C237.441 126.779 237.559 127.208 237.739 127.6C237.926 127.985 238.187 128.296 238.523 128.532C238.858 128.762 239.29 128.877 239.819 128.877C240.235 128.877 240.587 128.793 240.873 128.625C241.159 128.458 241.386 128.224 241.554 127.926C241.728 127.621 241.852 127.267 241.927 126.863C242.007 126.459 242.048 126.023 242.048 125.557ZM248.924 116.175V130.5H246.667V116.175H248.924ZM256.155 130.687C255.409 130.687 254.734 130.565 254.131 130.323C253.534 130.074 253.024 129.729 252.602 129.288C252.185 128.846 251.865 128.327 251.641 127.73C251.417 127.133 251.305 126.49 251.305 125.8V125.427C251.305 124.637 251.42 123.922 251.65 123.282C251.88 122.641 252.201 122.094 252.611 121.64C253.021 121.18 253.506 120.829 254.066 120.586C254.625 120.344 255.232 120.223 255.884 120.223C256.606 120.223 257.237 120.344 257.778 120.586C258.319 120.829 258.766 121.171 259.121 121.612C259.481 122.047 259.749 122.567 259.923 123.17C260.103 123.773 260.193 124.438 260.193 125.165V126.126H252.396V124.513H257.973V124.335C257.961 123.931 257.88 123.552 257.731 123.198C257.588 122.843 257.367 122.557 257.069 122.34C256.77 122.122 256.372 122.013 255.875 122.013C255.502 122.013 255.169 122.094 254.877 122.256C254.591 122.411 254.352 122.638 254.159 122.936C253.966 123.235 253.817 123.596 253.711 124.018C253.612 124.435 253.562 124.904 253.562 125.427V125.8C253.562 126.241 253.621 126.651 253.739 127.031C253.864 127.404 254.044 127.73 254.28 128.01C254.517 128.29 254.803 128.51 255.138 128.672C255.474 128.828 255.856 128.905 256.285 128.905C256.826 128.905 257.308 128.796 257.731 128.579C258.154 128.361 258.521 128.053 258.831 127.656L260.016 128.803C259.798 129.12 259.515 129.424 259.167 129.717C258.819 130.003 258.393 130.236 257.89 130.416C257.392 130.596 256.814 130.687 256.155 130.687ZM273.032 128.476V123.664C273.032 123.303 272.966 122.992 272.836 122.731C272.705 122.47 272.506 122.268 272.239 122.125C271.978 121.982 271.648 121.911 271.25 121.911C270.884 121.911 270.566 121.973 270.299 122.097C270.032 122.221 269.824 122.389 269.674 122.601C269.525 122.812 269.45 123.051 269.45 123.319H267.212C267.212 122.921 267.309 122.535 267.501 122.162C267.694 121.789 267.974 121.457 268.341 121.165C268.707 120.872 269.146 120.642 269.656 120.474C270.165 120.306 270.737 120.223 271.372 120.223C272.13 120.223 272.802 120.35 273.386 120.605C273.977 120.86 274.44 121.245 274.776 121.761C275.118 122.271 275.289 122.912 275.289 123.683V128.168C275.289 128.629 275.32 129.042 275.382 129.409C275.45 129.769 275.547 130.083 275.671 130.351V130.5H273.367C273.262 130.258 273.178 129.95 273.116 129.577C273.06 129.197 273.032 128.831 273.032 128.476ZM273.358 124.363L273.377 125.753H271.763C271.347 125.753 270.98 125.793 270.663 125.874C270.346 125.949 270.082 126.061 269.87 126.21C269.659 126.359 269.5 126.539 269.394 126.751C269.289 126.962 269.236 127.202 269.236 127.469C269.236 127.736 269.298 127.982 269.422 128.206C269.547 128.423 269.727 128.594 269.963 128.719C270.206 128.843 270.498 128.905 270.84 128.905C271.3 128.905 271.701 128.812 272.043 128.625C272.391 128.433 272.665 128.2 272.864 127.926C273.063 127.646 273.168 127.382 273.181 127.133L273.908 128.131C273.834 128.386 273.706 128.66 273.526 128.952C273.346 129.244 273.109 129.524 272.817 129.791C272.531 130.052 272.186 130.267 271.782 130.435C271.384 130.603 270.924 130.687 270.402 130.687C269.743 130.687 269.155 130.556 268.639 130.295C268.123 130.027 267.719 129.67 267.427 129.222C267.134 128.768 266.988 128.256 266.988 127.683C266.988 127.149 267.088 126.676 267.287 126.266C267.492 125.849 267.79 125.501 268.182 125.221C268.58 124.942 269.065 124.73 269.637 124.587C270.209 124.438 270.862 124.363 271.595 124.363H273.358ZM280.216 122.349V134.38H277.968V120.409H280.039L280.216 122.349ZM286.791 125.361V125.557C286.791 126.291 286.704 126.972 286.53 127.6C286.362 128.221 286.11 128.765 285.774 129.232C285.445 129.692 285.037 130.049 284.552 130.304C284.067 130.559 283.508 130.687 282.874 130.687C282.246 130.687 281.696 130.572 281.223 130.341C280.757 130.105 280.362 129.773 280.039 129.344C279.715 128.915 279.454 128.411 279.255 127.833C279.062 127.248 278.926 126.608 278.845 125.912V125.156C278.926 124.416 279.062 123.745 279.255 123.142C279.454 122.539 279.715 122.019 280.039 121.584C280.362 121.149 280.757 120.813 281.223 120.577C281.689 120.341 282.233 120.223 282.855 120.223C283.489 120.223 284.052 120.347 284.543 120.596C285.034 120.838 285.448 121.186 285.783 121.64C286.119 122.088 286.371 122.629 286.539 123.263C286.707 123.891 286.791 124.59 286.791 125.361ZM284.543 125.557V125.361C284.543 124.895 284.5 124.463 284.413 124.065C284.325 123.661 284.189 123.306 284.002 123.002C283.816 122.697 283.576 122.461 283.284 122.293C282.998 122.119 282.653 122.032 282.249 122.032C281.851 122.032 281.509 122.1 281.223 122.237C280.937 122.368 280.698 122.551 280.505 122.787C280.312 123.024 280.163 123.3 280.057 123.617C279.952 123.928 279.877 124.267 279.833 124.634V126.443C279.908 126.891 280.035 127.301 280.216 127.674C280.396 128.047 280.651 128.346 280.981 128.569C281.316 128.787 281.745 128.896 282.268 128.896C282.672 128.896 283.017 128.809 283.303 128.635C283.589 128.461 283.822 128.221 284.002 127.917C284.189 127.606 284.325 127.248 284.413 126.844C284.5 126.44 284.543 126.011 284.543 125.557ZM291.28 122.349V134.38H289.032V120.409H291.102L291.28 122.349ZM297.854 125.361V125.557C297.854 126.291 297.767 126.972 297.593 127.6C297.425 128.221 297.174 128.765 296.838 129.232C296.508 129.692 296.101 130.049 295.616 130.304C295.131 130.559 294.572 130.687 293.937 130.687C293.31 130.687 292.759 130.572 292.287 130.341C291.82 130.105 291.426 129.773 291.102 129.344C290.779 128.915 290.518 128.411 290.319 127.833C290.126 127.248 289.989 126.608 289.909 125.912V125.156C289.989 124.416 290.126 123.745 290.319 123.142C290.518 122.539 290.779 122.019 291.102 121.584C291.426 121.149 291.82 120.813 292.287 120.577C292.753 120.341 293.297 120.223 293.919 120.223C294.553 120.223 295.116 120.347 295.607 120.596C296.098 120.838 296.511 121.186 296.847 121.64C297.183 122.088 297.435 122.629 297.603 123.263C297.771 123.891 297.854 124.59 297.854 125.361ZM295.607 125.557V125.361C295.607 124.895 295.563 124.463 295.476 124.065C295.389 123.661 295.252 123.306 295.066 123.002C294.879 122.697 294.64 122.461 294.348 122.293C294.062 122.119 293.717 122.032 293.313 122.032C292.915 122.032 292.573 122.1 292.287 122.237C292.001 122.368 291.761 122.551 291.569 122.787C291.376 123.024 291.227 123.3 291.121 123.617C291.015 123.928 290.941 124.267 290.897 124.634V126.443C290.972 126.891 291.099 127.301 291.28 127.674C291.46 128.047 291.715 128.346 292.044 128.569C292.38 128.787 292.809 128.896 293.331 128.896C293.735 128.896 294.08 128.809 294.366 128.635C294.652 128.461 294.886 128.221 295.066 127.917C295.252 127.606 295.389 127.248 295.476 126.844C295.563 126.44 295.607 126.011 295.607 125.557Z" fill="#202020"/>
</g>
<defs>
<filter id="filter0_d_6_4015" x="0" y="0" width="354" height="200" filterUnits="userSpaceOnUse" color-interpolation-filters="sRGB">
<feFlood flood-opacity="0" result="BackgroundImageFix"/>
<feColorMatrix in="SourceAlpha" type="matrix" values="0 0 0 0 0 0 0 0 0 0 0 0 0 0 0 0 0 0 127 0" result="hardAlpha"/>
<feOffset dy="1"/>
<feGaussianBlur stdDeviation="4"/>
<feComposite in2="hardAlpha" operator="out"/>
<feColorMatrix type="matrix" values="0 0 0 0 0.12549 0 0 0 0 0.12549 0 0 0 0 0.12549 0 0 0 0.12 0"/>
<feBlend mode="normal" in2="BackgroundImageFix" result="effect1_dropShadow_6_4015"/>
<feBlend mode="normal" in="SourceGraphic" in2="effect1_dropShadow_6_4015" result="shape"/>
</filter>
</defs>
</svg>
